<?xml version="1.0" encoding="UTF-8" standalone="no"?>
<svg xmlns:dc="http://purl.org/dc/elements/1.1/" xmlns:cc="http://creativecommons.org/ns#" xmlns:rdf="http://www.w3.org/1999/02/22-rdf-syntax-ns#" xmlns:svg="http://www.w3.org/2000/svg" xmlns="http://www.w3.org/2000/svg" xmlns:sodipodi="http://sodipodi.sourceforge.net/DTD/sodipodi-0.dtd" xmlns:inkscape="http://www.inkscape.org/namespaces/inkscape" inkscape:version="1.0rc1 (09960d6, 2020-04-09)" sodipodi:docname="COVID-19_Outbreak_Cases_in_Japan.svg" version="1.1" id="svg2" x="0" y="0" viewBox="0 0 608 805.3" xml:space="preserve"><metadata id="metadata182"><rdf:RDF><cc:Work rdf:about=""><dc:format>image/svg+xml</dc:format><dc:type rdf:resource="http://purl.org/dc/dcmitype/StillImage"/></cc:Work></rdf:RDF></metadata><defs id="defs180"/><sodipodi:namedview inkscape:current-layer="svg2" inkscape:window-maximized="0" inkscape:window-y="23" inkscape:window-x="0" inkscape:cy="334.41891" inkscape:cx="445.92986" inkscape:zoom="7.9617735" showgrid="false" id="namedview178" inkscape:window-height="788" inkscape:window-width="739" inkscape:pageshadow="2" inkscape:pageopacity="0" guidetolerance="10" gridtolerance="10" objecttolerance="10" borderopacity="1" bordercolor="#666666" pagecolor="#ffffff"/><style type="text/css" id="style415">.st0{fill:#c8c8c8}.st1{fill:#c80200}.st2{fill:#c8c8c8;stroke:#fff;stroke-width:1.0667}</style><path id="path2920-3" class="st0" d="M446.5 9.1c.2-5 6.6-4.4 9.3-1.4l13.8 15.6c1.6 1.8 3.5 3.2 5.2 5.1 2.3 2.7 4.2 4.8 6.1 6.1 3 2.1 6 5.1 8.8 8.2 2.2 2.4 4.1 5.1 6.7 6.1 1.2.5 2.4 1.2 3.6 2.4.8.7 1.5 1.5 2.8 2.3s1.2.9 2.6 2.2c2.3 2 6 4.8 8.7 4.9 3.1.2 6.1 2.7 8.7 4.7 4 2.9 8.6 4.3 12.9 4.7 5.2.5 13.8 1.3 16.5 1.7 5.1.7 10.9.8 12.3-.7 2-2.3 4.5-2.6 5.7-4 1.7-2.1 3.1-3.2 3.4-4.9.6-3.3 2.3-5.8 5.5-8.7 6.2-5.7 5.5-6.5 5.2.9-.1 2.6-.6 5.1-2.2 6.9-1.6 1.8-2.2 3.4-3 4.2-1.9 2-1.8 8-1.4 11.1.3 2.1 1.3 4.8 1.4 5.9.1 1.4.7 2.8 1.7 3.9 1.1 1.2 1.7 2.1 2.2 3.1.5.9.9 2 1.8 2.9 1.4 1.5 2 3.4 3 4.9 2.9 4.4 6.1 6 10.3 4.3 15.6-6.4 4.4-.6 2.7 2.3-2.2 3.9-4.1 7.1-8.8 8.7-3.3 1.1-6.6 2.9-9.1 5.8-2.7 3.2-4.9 5.2-7.6 1.8-4.5-5.5-7 .6-4.6 3.4 3.3 4 2.4 3.4-1 3.5-2.1.1-4.5.2-6.9-.6-4.3-1.6-8.4-3.6-12.6.1-1.1 1-1.1 1.7-3.4 3.6-4.3 3.5-7.3 6.9-10.3 10.6-1.2 1.4-1.8 3.2-3 4-2 1.3-2.8 2.8-3.4 4.6-.8 2.4-2.4 3.6-3.2 4.9-2.5 4.2-2.6 8.9-2.8 14.9l-.3 9.2c-.2 6.8 0 6.7-5.3 3.6-2.6-1.5-5.3-2.3-9.9-3.2-3.9-.8-7.8-1.1-11.5-2.7-.9-.4-1.7-1.4-3.2-1.8-1.5-.3-2.5-1.2-4-2.5-.8-.7-1.6-1.6-2.8-2.1-2-.8-2.3-1.4-3.2-2.2-1.8-1.6-3.4-3.5-6-4.9-2.3-1.2-3.9-2.2-5.5-3.6-1.5-1.2-3.2-1.8-6-1.8-4.2-.1-8.1-.4-11.9.7-1.1.3-3.1.6-4.9 1-4.2 1-4.2 1.9-5.4 3.3l-8.7 10.1c-3.3 3.8-2.9 3.1-4.2-.2-1.1-2.8-1.7-4.4-3.1-6.3-1.4-1.9-3-3.6-7.1-3.5-1.3 0-2.8.4-4.7.6-1.1.2-2.1.2-3.6 1.4-.9.7-1.3 1-2.2 1.7-3.2 2.5-2.5 5.5-2.4 8.3l.2 4c1.6 4.1 5.7 5.6 9 6.3 2.1.4 6.4.5 9.1.2 2.3-.3 3.4.5 3.3 2.9l-.2 2.7c-.1 1.5 1.2 1.7 2.2 2.1 3.6 1.5 6.8 2.9 9.5 3.4 4.1.8 3.6 2.4 1.9 4.4-1.4 1.7-2.7 2.8-3.8 4.1-1.7 2.2-3.5 2.3-5.5 1.7-1.1-.4-2.3-.5-4-.7-1.6-.2-2.8-1.1-3.9-2.6-1.8-2.4-3-1.5-3.8-.6-1.9 2.1-3.9 4.2-5.2 6.6-.8 1.5-1.6 2.5-1 6.1.4 2.4-.1 4.3-.6 6.1-.3 1.2-1.3 2.1-2 3-1.4 1.9-2.9 1.9-4.7.6-.9-.6-2.1-.5-3.4-1-2.8-.9-4-3.2-5.2-5.1-1.2-2-1.6-8.1 1-10.1l2.4-1.8c1.6-1.1 1.8-2 1.9-4l-.6-5.1c-.2-1.7-1-2.7-3.6-5-.9-.7-1.3-2.1-2.4-2.7-1.6-1-3.3-1.9-4.7-3.4-.8-.8-1.8-1.6-3.2-2.2-2.7-1.2-2.6-2.5-2.7-4.8v-8.6c0-1.6-.1-3.3 1-4.7.7-.9.6-2.3 1.7-3.6 1.6-2.1 2.3-3.2 3.3-3.7 1.5-.7 2.5-1.1 3.3-1.8 1.2-1.1 2.1-1.4 2.6-1.7 1.7-.7 2.8-1.7 3.5-2.4 2.4-2.1 4.4-4.1 6.1-6.3 2.4-3 3.6-7.8.6-10-2.1-1.5-3.4-3.2-3.8-5.1-.5-1.8-1.3-3.8 1.6-6.4 2.4-2.1 8.6-2.5 11.9-.9 1.9.9.7 3.5 5.9 3 3.4-.3 7.1-.1 9.8-.2 5.7-.2 8.2-4.1 9-7.7l.2-11.8c0-1.9.3-3.3-1.1-3.4-3.8-.2-.8-6 .2-6.7 1.6-1.4 2.2-2.1 3.1-2.6 1.3-.9 2.8-2.5 2.7-5.1l-.2-10.5c0-1.9-.2-3-1.4-3.4-2.1-.8-1.2-2.4.2-3.2 1.5-1 1.3-2 1.3-3.1l.2-12.5c0-1.8.3-3.3 1.4-4.7.9-1.1 1-3.5.4-5.3-.4-1.1-1-2.2-1.2-3.4-.2-1.3-1.3-2.9-3.6-5.1-2-1.9-3.8-3.8-3.9-5.3-.1-1.2-1.6-1.9-2.3-3-2-3.4-1.2-7.9.6-10.3l3.1-2.4c1.7-1.3 2.2-1.4 2.2-2.5l-.1-5.8z"/><path style="fill:#c80200;fill-opacity:1" id="rect4335-7" class="st0" d="M436.6 225.6c-.5-5 5.6-6.5 7.9-3.5 2.8 3.7 6.7 3.5 8.8 1.9 2.9-2.1 4.9-2.6 4.9 1.6 0 3.6.2 4.9.3 6.1.1 1.7 0 3.5.6 5.1.5 1.3 1.8 1.4 2.1 5.5.2 2-.1 5.7-.2 7.7-.3 3.1.1 5 .8 6.3.7 1.4 1.7 3.5 2.5 4.1 2.2 1.6 4 4.1 5.3 5.9 1.4 1.9 2.9 3.7 4.3 5 3.1 2.7 5.5 6.4 7.4 9.3 2.5 4 4.4 8.8 9 13.1 2.7 2.5 5.1 8.6 6.7 14 1.3 4.3 3 8.8.5 16-.5 1.6-.8 3.9-.8 4.7-.2 3.7-1.4 7.4-1.8 9.8-.2 1.5-3.3 6.2-4.7 7.2-4.9 3.8-8.4 14.9-5.1 23.7.7 2 1.8 4.9 3.2 6.5 1.9 2.3 1.6 5.5-1.4 4.8-.9-.2-1.7-.3-2.4-.9-1.3-1.1-5-1.5-7.3-.2-2.4 1.3-5.8 4.4-8.3 6.6-1.6 1.5-2.8 4.4-2.7 6.3.2 3.5.5 7.3 1 10.6.4 2.6 1.7 5.8 3.4 7.9 2.6 3.2 4.6 8.5 5.8 12.5.6 2.1.6 5 1.2 7.1.5 1.8 1.3 4.3 1.4 6.4.1 2.5-.1 5.8-.2 7.9-.1 3.1-1 6.7-2.4 8.3-3.4 4.1-2.9 6.1-3.5 7.9-4.8-3.3-10.6-3.4-12.7.6-1.4 2.7-2.5 5.5-8.2.3-3-2.7-5.9-5.4-8.6-8.3-8.2-9-14.2-.5-19.1 5.1-1.5 1.8-3.9 3-5.9 4.4-3.2 2.2-7 1.8-11.4.5-.6-3.1-1.2-6.1-4-8.6-2-1.7-3-3.6-3-10.4 0-3.5.3-6.3 5.9-6.9 2.3-.2 9.7-2.6 8.8-10.2-.4-3.5.5-5 4.1-10.3-3.4-1.9-6.2-6.1-5.8-9.9.3-2.6 0-4.5 4.1-7.6 5.6-4.2 3.1-7.3-3.6-12.3-2.4-1.8-5.9-3.3-8.2-6.1.4-1.1.6-1.9.6-2.8-.1-3 1.4-5.9 3.5-8.7 2.3-3.1 5-10.8 4.8-13.1-.3-3.8-.5-7.1 1.1-9.4 1.1-1.5 1.6-4.1 1.8-5.9.3-3.5 0-12 0-16.2 0-1.7.1-4.4-1.3-5.5s-2.2-3.5-2.1-5.3c.1-1.6-.1-3.7.2-5.3.6-3.3-2-6.5-2.2-.2 0 1.5-.4 2.3-.8 3.2-3.1 6.8-10.3 3.5-10-.2.2-3.3 3.2-6.1 5-7.4s4.6-5.6 4.8-9.5c.1-2.1.4-5.2.3-7-.1-1.9-.4-4.1-2.3-5.6-1.4-1-2.7-2.7-3.3-3.7-.7-1.2-1.6-2.8-2.6-3.7-3.7-3.3-.6-5.2 1.6-6.3 1.1-.5 2.7-.8 3.7-1.4 5.2-3.4 6.5-6.8 7.5-10.3.4-1.4-.1-12-.1-13.2.1-2.2 1.2-7.2 3.2-6.5 1.3.4 3.2-.3 4.2-.9 4.3-2.4 6 1.5 7.1 4.7.4 1.2-.2 5.5 0 7.9.2 2.3 2 4.1 3.4 5.5 1.3 1.4 4.4 2.9 6.1-2 1-2.9 4.2-5.5 8-1.7 1.9 1.9 2.7 2.3 5.1-1.4 1.1-1.7.2-9.1.2-12.6.1-5.2-3.2-5-6-1.6-1.2 1.4-5.5 6.6-12.7 3.7-2.8-1.2-.1-6 1.1-8.2.5-.8 1.6-2.8 1.4-4.9z"/><path id="rect4337-4" class="st0" d="M406.8 463.4c-1.6-2.8-8.9-2.3-11.3 4.8-2.1 6.1-4.3 9.5-8.8 9.3-3 1.9-5.2 4.9-8 7.1-5 4-5.6 12.4 3.9 13.1 4.1.3 3.9 5.2 3.5 8.7-.6 4.8.8 7.3 3.1 9.1 2.3 1.9 4.4 4 7.2 6.4 2.7 2.4 6.1 3.8 10.6 4.9 1.7 1 3.4 1.4 4.6 2.6 4.1 4.1.2 9.3-3.4 9.8-3.1.4-5.4 3.8-5.1 5.2 1.4.1 2.6.1 3.3.9 2.4 2.3 1.9 4.2 1.9 5.5 0 3.3 2.7 6 6.4 6.1-.2-1.7.2-3.6.5-4.6.8-2.8 2.9-4.5 4.8-5.5 2.2-1.2 5.7-.9 8.3-1 3.5-.2 4.4 1.7 4.8 3.8 1.1 5.9 11.5.6 4.5-8-1-1.2-2.2-3.7-2.4-6.1-.3-3.5-.2-6.6 3.4-8.3 1.3-.6 3.1-1.3 4.3-1.8 5.3-2.4 13.1-.4 7.6 5.8-.9 1-3.1 3.3-4.1 4.3-1.7 1.7-3.4.4-3.4 7.5 0 2.9-.1 6.9.1 9.9.1 1.2.6 3.1 1.1 4.3.6 1.3.6 2.7.5 4.1-.4 3 1.4 4.1 3.4 3.8 2.5-.3 4.8-2.3 5.3-4.8.2-1 .4-3.4 3.8-5.4 1.7-1 3.9-3.4 6-4.3 2.7-1.1 4.7-2.6 4.2-9.1-.3-3.2.5-7.4.4-9.9-.1-3.7-.6-8.3 4.7-10.5 1.9-.8 4-2.3 5.9-3.2 5.4-2.6 2.8-5.2.6-7.4-1.8-1.7-4.3-4.4-5.9-6.3-3.5-4-5.7-10.3-5.7-15.6 0-3.1 0-7.5-.1-10.6-.1-2.6.7-6.2 1.9-8.7 1.2-2.5 2.7-5.5 3.7-8.5-4.8-3.3-10.6-3.4-12.7.6-1.4 2.7-2.5 5.5-8.2.3-3-2.7-5.9-5.4-8.6-8.3-8.2-9-14.2-.5-19.1 5.1-1.5 1.8-3.9 3-5.9 4.4-3.3 2.2-7.2 1.8-11.6.5z"/><path id="rect4339-3" class="st0" d="M414.7 556.9c-3.7-.1-6.4-2.8-6.4-6.1 0-1.3.5-3.2-1.9-5.5-.8-.7-1.9-.7-3.3-.9-.3-1.4 2-4.8 5.1-5.2 3.6-.5 7.6-5.7 3.4-9.8-1.2-1.2-2.9-1.6-4.6-2.6-4.5-1.1-7.9-2.5-10.6-4.9-2.8-2.4-4.9-4.6-7.2-6.4-2.3-1.8-3.6-4.3-3.1-9.1.4-3.5.6-8.4-3.5-8.7-9.5-.7-8.9-9.1-3.9-13.1 2.8-2.2 4.9-5.2 8-7.1 4.6.2 6.7-3.2 8.8-9.3 2.4-7 9.8-7.6 11.3-4.8-.6-3.1-1.2-6.1-4-8.6-2-1.7-3-3.6-3-10.4 0-3.5.3-6.3 5.9-6.9 2.3-.2 9.7-2.6 8.8-10.2-.4-3.5.5-5 4.1-10.3-3.4-1.9-6.2-6.1-5.8-9.9.3-2.6 0-4.5 4.1-7.6 5.6-4.2 3.1-7.3-3.6-12.3-2.4-1.8-5.9-3.3-8.2-6.1-.5 1.4-1.1 2.7-1.9 3.7-.8 1.1-.5 7.3-.6 10.3-.2 7.3-5.9 16.3-11.9 19.2-2.5 1.2-10.8 9-11.5 14.7-.2 1.5-1.2 4.3-3 7-1.3 1.9-2.2 5.5-2.7 7.2-.7 2-1.5 4.4-2.8 6-1.4 1.7-3.2 4.3-5.1 5.5-1.4.9-3.2 2.3-4.5 3.5-1.1 1.1-2.9 2.6-4.3 3.2-1.5.6-3.1 1.8-4 2.8-1.2 1.3-3.6 2-5.1 3.4-1.9 1.8-3.7 2.1-7.6 3.4-1.9.6-5.2.1-6.7 1.3-.9.7-2.2 2.4-3.3 2.7-.6.2-1.9 1.5-1.8 3.1 0 2.7-2.5 6-7.1 5.4-5.1-.7-8.7-9.1-7.2-10.6 2.1-2.1 1.1-3.8-1.9-4.5-3.4-.8-1.2-4.4 1.1-5.6 2.2-1.2 6.2-3.5 7.9-6.3.4-.7 1.8-3 2.5-3.5.8-.6 2.2-5.4.9-7.2-2-2.8-7.9-.8-9.3 1.8-.8 1.5-1.9 3.7-7.9 4.3-1.6.2-5.1 2.5-6.1 4-.8 1.1-1.9 2.4-2.9 3.4-3.4 3.4-1.1 7.7.6 11.1 1.5 2.8 3.3 17.2-.2 22.5-.9 1.3-1.8 3.5-2.7 4.8-2.8 4.2-7 9.5-10 13.6-1.6 2.2-4 4.8-5.1 7.2-1.3 2.8-3.3 5-5.1 6.8-2.9 3.1-1.1 6.2 2 9.7 1.5 1.7 6.1 8.2-2.2 12.7-1.2.7-4.2.2-5.3 3.7-.4 1.3-1.8 2.6-3 3.4-1.1.7-2.7.9-4.2 1.6-1 .5-2.7 1.2-4.2.2-1 3.9 4.5 7.7 11.1 6.3 2.5-1.9 4-2.8 5.1-4.3 1-1.2 2-1.5 3-2.1 1.1-.7 2.1-.9 3-2 2.5-3.1 3.8-3.6 5.1-4.9 1.8-1.9 2.4-2.8 3.5-4.5 1.4 2.3 3.7 5.4 5 9.5.9 3.1 2.5 2.9 2.9 5 1.7 8.6 3.2 11.8 11.9 10.9 1.3 4 4.2 4.2 5.1 7.2 4.2-1.3 5-2.2 4.6 3.4-.1 1.8.2 4.4 1.1 5.9 3.6 5.9 3.3 3 9.5 1 1-.3 2.4-.7 3.5-.8 7.5-.7 3.7 3.7 1.9 4.8-11.5 7.2-3.5 4.8 1.6 2.9 3.2-1.2 12.6-3.2 13.6-3.4 6.9-1.3 18.5.1 25.4-.8 2.7-.4 4.7 1.2 5.5-4.9.1-1-.2-3.3 3-6.3 1.6-1.5 2.6-4.5 2.6-8.2 0-2.2 1.8-4.7 3.7-5.3 1.4-.5 3.3-2.1 6-3.3s6.6-1.6 6.3 4.6c-.1 1.9 0 6.8-.2 9.9-.3 4.8 4.6 11.7 6.7 6.3.5-1.3-.8-2.5 2.7-4.7 1.2-.7 2.1-2.6 3.4-3.3 1.5-.8 3-2.6 2.7-5.7-.2-1.9-.1-4.5 0-6.4s-1.1-3.3-2.3-4.6c-.8-.2-1.1-1-1.2-1.9z"/><path id="rect4341-8" class="st0" d="M258.7 556.7c-1 3.9 4.5 7.7 11.1 6.3 2.5-1.9 4-2.8 5.1-4.3 1-1.2 2-1.5 3-2.1 1.1-.7 2.1-.9 3-2 2.5-3.1 3.8-3.6 5.1-4.9 1.8-1.9 2.4-2.8 3.5-4.5 1.4 2.3 3.7 5.4 5 9.5.9 3.1 2.5 2.9 2.9 5 1.7 8.6 3.2 11.8 11.9 10.9 1.3 4 4.2 4.2 5.1 7.2-1.1.4-4.7 2.5-5.4 3.8-.9 1.7-2.6 4.7-3.4 6.2-1 2-2 4.2.3 5.6 1.3.8 4.3 2.5 5.5 3.7 1.1 1.1 3.5 2.1 5.1 2.9 3.5 1.8 16.5 9.2 4.3 14.5-.9.4-3-.4-4.7.3-2.9 1.2-7.8 1.9-10.7 3.7-2.9 1.9-6.2 1.9-5.8 7.2.4 5.1-1.3 5.9-5.6 9.5-5.7 4.7-5.6 3-5.5 11.1 0 4.4.9 8.3-2.3 9.1-2.4.6-4.1 2.8-4.6 3.2-1.2 1-2.2 3-4.8 2.6-.6-.1-1.6-1-2.6-1-1.1 0-2.1-.4-3.5-1.6-1.5-1.3-3.8-2.6-5.8-2.9-.7-.1-1.6-.3-4.6-2.4-.6-.4-1.5-2-2.1-2.6-1.1-1.1-2.4-2.1-2.6-3.4-.4-1.9-2-3.9-4.3-4.3-2-.4-4.1-3.8-3.4-6.9.6-2.4.4-5.9 0-7.5-1.4-6.4-.8-7.7 2.1-9.2 1.4-.7 3.6-2.4 4.4-3.5.7-1 1.5-2.3 2.5-3.2 1.7-1.5 2.8-3.5 2.6-5.8-.2-2.5.5-6.1-4.2-5.4-2.6.4-6.7 2.5-12.1.6-2.2-.8-5.2-1.4-7.9-1.1-3.4.3-6.4-1-9.7-1.5-4.9-.8-11.1-.9-12.7 1-4.8-5.8-7.8-18-1.1-23.8 7.5-6.4 8.9-11.9-.7-22.7 2.5-1.5 1.9-2.4 6.8-2.6 4.9-.1 7 1.5 10.2 1.7 5.3.3 5.3-.8 7.9-2.6 1.1-.7 2-2.3 2.7-3.4 1.7-2.5 3-3.8 4.8-3.5 2.7.4 3.2 2 3 3.8-.1 2.3-.7 4.6-.5 5.8 1.1 6 4.1 6.9 5.1 3.4.9-3.1 4.5-4.8 5.5-2.5.6 1 1.3 2.1 2.1 2.6z"/><path id="rect4343-0" class="st0" d="M212.9 600.4c-4.8-5.8-7.8-18-1.1-23.8 7.5-6.4 8.9-11.9-.7-22.7-1.9 1.1-4.7 3-6.9 3.3-3.8.4-5.4 2.6-7.7 3.4-1.9.7-4.4 1.5-6.3 1.7-2.4.2-7 .3-10.1 0-7.1-.6-7.8 3.3-12.4 3.8-1.8.2-4.7-.1-6.5.1-2.1.3-4.3-1.7-2.9-3.1 1.3-1.3 1.4-3.2-2.7-3.1-2.2 0-4.3.3-5.2 2-.8 1.4-3.5 3-5.9 4.4-3.4 1.9-6.5 5.2-6.9 6.8-.4 1.9-2.4 4-3.9 5.5-4.1 4.1-10.2 8.7-14.2 13.6-2 2.5-3.6 5-7.1 8-2.4 2-4.7 5.2-6.6 7.5-3.8 4.9-5.7 6-8.6 5.6-3.2-.5-6.8 3.8-8.3 6.7-1 2.1-2.1 5.2-5.9 6.3-1.8.5-4.2.3-6.3 2-.8.6-3.2.5-4.7.4-3.9-.4-4.8 2.2-5 4-.2 2.4.1 6.1-.7 8.3-.7 1.9.3 3.2 1.8 3 .5-.1 2 1.1 2.2 1.4.6.9 1.8 1.4 2.9.8 2.6-1.5 2.8 1.1 3.4 2.1.3.5.7 1.2 1 1.8 1.3 3 4.1 2.5 5.9 1.4.8-.5 1.6-2 3.7-2.9 1.1-.5 2.3-1.5 3-2.4 1.5-1.8 8.4-2.8 14.9-.6.7.2 2.5 1.3 3.5 1.8 1.6.8 2.8 2.1 3.4 2.9.8 1 2 2.2 3.2 2.7.7.3 1.5.4 2.2 1.3 2.8 3.3 2.1-2.3 2.3-3.8.3-1.5 0-6.5 2.1-8.3.7-.6 2.9-6.1 1.8-8.8-2.3-6 8.2-9.3 11.7-2.6 2.6 4.9 7.9 3.1 9.6.2 1.2-2 6.1-4 9-4.3s6.3-1.3 8.5-4.6c.9-1.3 5.8-4.5 8.3-2.5 2.2 1.7 4.8 1.1 4.7-1.6-.1-1.8 2.9-3.5 5-3 2.5.5 3.9.1 4.7-1.1 1.1-1.9 3.9-.4 5 1 1.2 1.6 7.4.6 8.2-2.6.2-.9 1.2-3.1 6.3-5.4 1.9-.7 6.1-4.1 8.3-6.6z"/><path id="path3585-8" class="st0" d="M229.8 619.6c-.2-2.5.7-3.5 1.4-4.9.8-1.5 1.9-2 2.3-2.5.6-.6 1.6-1.7 2-2.6.4-.9 2.2-1.4 2.6-2.5.4-1 1.8-1.4 3-1 1.8.6 2.5 2.2 2 3.8-.2.7-.4 2.1-.6 2.8-.4 1.1-.9 2-1.7 2.8-2 2-1.7 3.8-1.7 4.2.4 6.3-5.1 6.7-7.4 4.1-.9-1-1.7-1-1.9-4.2z"/><path id="path2468-0" class="st0" d="M201.8 621.2c1 .7 3.4 1.9 4 .8.8-1.3 2.2-1.4 3.8-.6.9.4 1.7 1.5 3.4 1.6 3.4.2 3.6 1.9 3.7 2.2.2.5.8.9 1.7 1.1l1.5.3c.5.1.9.1 1.3.1s.7 0 .9-.1c.1 0 .2 0 .3-.1.5-.1.9-.1 1.3-.2.5 0 .9 0 1.2.1.2.1.4.1.5.2l.3.3c.1.1.1.2.2.4.1.4.1.8 0 1.2-.3 2.9 1.4 6.7 3 7.1 1.7.5 2.3 2.9 2.6 5.9.3 2.6-1.3 5.2-2.9 6.3-4.8 3.3-10.7 8.8-13.9 13.4-.8 1.1-1.4 3.6-2.6 5.6-1.1 1.9-1.6 3.8-2.2 5.7-.7 2.3-2.1 4.4-4.8 1.4-1.2-1.3-3.3-1.9-5-4.5-.8-1.2-2.7-2.4-3.8-3.3-2-1.5-4.3-2.5-8-2.3-2.2.1-5.5-.6-7 2.7-.6 1.3-2.6 3.3-4.5 4.1-3.6 1.5-7.3 2.9-7.5 8.2-.1 3.8-1.2 5.5-2.6 7.7-1.2 1.8-2.7 4.4-4.6 6-2.6 2.2-4.9 4.9-2.7 7.1 1.4 1.4 2.6 5.6-1.6 4.8-1.9-.4-4.9.1-6.4 1.8-2 2.2-4.7 3.2-6.6 0-1.2-2.1-3.1-4.8-4.5-6.7-1.8-2.5-4.4-3.2-6.6.8-1.2 2.3-6.7 9.2-1.6-.8 1-2 2.8-4.3 3.1-6.5.5-3 .9-5.6 2.1-6.7 1.6-1.4 1.7-3.1.7-3.8-1.1-.9-1.8-3.5-2.6-4.7-3.8-4.9-7.1-2.9-11.8-2.9-10.3.1-5.3-1.1 0-1.9 6.6-1 9-5.5 12.7-8.7 1.1-.9 2.4-2.4 3.6-3.1 2.5-1.4 3.2-2.7 3.4-4.7.2-1.7 1-3.7 2-4.6 1.9-1.7 1.8-3.9 1.8-4.4.1-3.4 2.1-6.1 4.2-8.1 4.7-4.4 6.9-1.1 9.5 2.2 1.9 2.4 4.2 5.7 6.7 2.4 1.7-2.2 5.4-2.4 6.6-2.2 5 .7 9.2-3.5 9.3-6.3.1-3.9-.4-5.8 4.7-8.7 1.7-1 3.8-2.8 5.3-4.1 2.6-2.4 5.9-3.4 8.4-1.5z"/><path id="path3240-6" class="st0" d="M69.7 648.6c.2-.2 3.1 6.9 4.8 9.9 2.5 4.5 7.9 8.4 11.5 8.9 4.1.5 6.5-.8 7.1-1.5 5.6-6.3 15.8 2.2 9 9.6-2.5 2.7-4 7.6 3.1 7.3 4.1-.1 5 3.4 6.2 5.2 1.6 2.4 3.2 6 5 8 2.4 2.8 2.2 6.9-.3 9.6-2.3 2.4-2.3 3.6-2.4 5.4-.2 3.1-3.1 5.9-4.4 7.1-4.7 4.2-4.8 12.1-4.9 14.2-.2 5.3-1.6 6.2-2.7 8.6-2.5 5.3-2 8.3-2.2 11.4-.5 5.8.3 13.6-.1 19.3-.2 2.4-.7 5.9-1.7 8.1-2.1 4.5-5.8 3.7-7.1 1.1-1-2-4.3-4.7-6.1.2-.7 1.9-.7 4.4-.8 6.2-.3 3.5-1.2 4.7-3.2 5.8-5 2.5-6.6 4.8-7.8 5.5-6.3 3.2-11.8.8-3.9-6.6 4.3-4 2.8-8.2-.5-10.9-3.8-3.1-3.8-1.1-3.9-7-.1-3.5.7-4.1 2.6-3.9 3.5.2 3-4-1.6-1.6-1.8.9-3.9 2.6-5.5 3.9-5.7 4.4-1 8.9 1 11.2 1.7 2 5.8 5.3 1.8 10.7-.9 1.2-3.9.9-5.8.5-2.4-.5-6.4-1.7-7.9-1.5-5.6.7-9.2-7.3-3.5-11.5 4.1-3 3.5-11.9-.5-13.5-4.5-1.8-6-12.8-4.5-15.1 4.1-6.3 8-11.4 11.4-14.9 1.6-1.7 3.6-4.2 3.7-6.5.3-6.3.1-9.5-.9-9.7-1.5-.3-4-.9-.3-2.7 1-.5 4.9-7.6.6-12.5-2.6-2.9-5.4-7.4-6.9-10.6-2-4.3-8.7-6.8-9.8-.3-.3 1.9-.5 9.1-.5 10.1.3 4.7 3.1 2.8 4.5 2.4 7.2-1.8 8.7 3.9 5.7 6.8-1.4 1.3-2.5 3.1-3.8 4.3-3.8 3.5-7 2.6-5.8-2.2 1.1-4.2-.7-7.8-6.3-2.6-1.9 1.8-4.6 4.3-6.3 5.6-3.5 2.6-7.2 3.1-5-1 1.7-3.2-2-7.1-4.1-8.6-2.4-1.7-3.3-8.6-1.4-9.9 1.1-.8 5.5 1.3 6.3 5.5.5 2.7 1.7 3.6 3.4 4.2 3.7 1.3 4.9-1.5 3.7-4-1.3-2.6-5.3-6.6-7.1-6.6-3.2.1-6.3-2.1-7.9-5-.6-1.2-2.3-2-3.2-3-4.7-5.5 2-10.2 6.7-8.2 4.2 1.7 5.1 2.8 4.6-2.5-.6-6.4 3.9-5.4 6-5.4 3.8 0 5.9.7 6.3-3.6.4-3.5 3.3-5.3 6.3-3.6 3.9 2.2 7-2.2 7.1-4.9 0-1.8 1-3.9 3.9-6.9 3-3.2 6.1-5.1 8.6-4.7 2.5.5 3.3 0 4.4-.9.8-.6 1.7-1.9 2.6-2 1.9-.2 2.8-.7 2.7-.7z"/><path id="path3242-8" class="st1" d="M555.2 705.3c2.7-9.9 12-3.7 5.9 3.2-1.9 2.2-3.1 4.8-5.3 6.1-2.1 1.2-4.4 3.4-4 4.6.6 1.5-.1 2.4-.8 3-3.3 2.7-1.7 4.2-.2 5.1 3.1 2 2.3 3.6-1.4 5-4.7 1.7-3.9 4.1-2.6 5.3 6.6 5.8-7.2 14.4-7.4 1 0-2.1 3.7-2.1 1-6.9-1.4-2.5-1.7-3.9 1.8-6.4 4.3-3 4.2-7.4 3.6-8-1.9-2.1-5.3-3 1.1-3.7 4.2-.5 6.3-1 8.3-8.3z"/><path style="fill:#c80200;fill-opacity:1" id="path3280-9" class="st2" d="M414 350.2s4.4-.1 6.3-.1c2.3-.1 4.6.5 6.1 1.1 3.8 1.5 8 2.9 11.3 4.3 6.4 2.7 8.2.9 10.8-.9 1.7-1.2 4.4-3 6-2.5 1.5.5 3.3 1.5 5.1 1.3 1.1-.1 3.5.7 4.4 1.5 1.4 1.3 3.9 1.9 5.3 3.4 3.2 3.4 6.9 2.8 9.8 1.6 1.3-.5 4.7-1.3 4.7-1.3"/><path id="path3302-8" class="st0" d="M361 401.8c2.4-7.2 9.9-2.5 6.3 2.2-.7.9-.9 2.4-1.3 3.5-1.6 4.3.5 5.5 1.7 5.1 3.2-.9 3.5 2.1 1.8 4.8-1.5 2.4-4.6 4.6-6.4 6.8-1.3 1.5-3.6 4.1-4-.7-.1-.9.2-2.5.3-3.4.4-2.6-.7-3.6-1.4-3.8-1.7-.5-3.3-3-1-5.4 1.2-1.3 2.4-.9 2.3-4 0-1.6 1.2-3.5 1.7-5.1z"/><path style="fill:#c80200;fill-opacity:1" id="path2506-5" class="st2" d="M408.9 283s2.2-1.5 3.8-2.2c1.5-.7 3.4-1.4 5.3-1.4 6 .1 12.4.2 18.2 0 4.4-.1 4.1-1.7 4.5-2.5 1.3-2.4 7.2-3.5 7.5-.4.3 2.3-.1 4 .4 5.9 1.4 5.3 8.6 2.3 11.4.1 1.8-1.4 1.1-4.8 7.2-5.1 5.4-.2 8-5 8-5m-24.8 12.2c-2.3 1.9-3.6 3.7-4 10.7-.3 5.2-.3 12.9-.1 17.7.3 7.2-1.5 5.3-2.2 9.2-.3 1.5-.7 4.2-.9 5.8-.7 4.9.8 5.7 2.9 7.6.8.7 1.6 1.9 2.2 2.7.9 1.3 1.9 3.1 2.7 4.5 3.1 5.3 3.9 8.2-2 11.6-4.7 2.8-6 4.6-4.3 10.2.7 2.4 2 1.8 2.2 7.7.2 5.4-.1 9.1-.2 12.9-.1 5-3.4 10.1-5.1 11.6-9.2 8.4-2.8 8.4 1.5 12.9m-24.7 7s2.8.8 5 .8c1.9 0 6.9-.2 10.3-.1 4.6.2 6.6-3.3 7.3-4.8.7-1.6 2.5-3.2 3.8-4.3.7-.6 1.8-1.1 2.5-1.6 3.7-2.2 7.1-.4 9.6.9 4.1 2.1 11.9.3 11.6-.1m4.2 53.3c-4.8-3.3-10.6-3.4-12.7.6-1.4 2.7-2.5 5.5-8.2.3-3-2.7-5.9-5.4-8.6-8.3-8.2-9-14.2-.5-19.1 5.1-1.5 1.8-3.9 3-5.9 4.4-3.2 2.2-7 1.8-11.4.5-.6-3.1-1.2-6.1-4-8.6-2-1.7-3-3.6-3-10.4 0-3.5.3-6.3 5.9-6.9 2.3-.2 9.7-2.6 8.8-10.2-.4-3.5.5-5 4.1-10.3-3.4-1.9-6.2-6.1-5.8-9.9.3-2.6 0-4.5 4.1-7.6 5.6-4.2 3.1-7.3-3.6-12.3-2.4-1.8-5.9-3.3-8.2-6.1m1.7 82.3c-1.6-2.8-8.9-2.3-11.3 4.8-2.1 6.1-4.3 9.5-8.8 9.3-3 1.9-5.2 4.9-8 7.1-5 4-5.6 12.4 3.9 13.1 4.1.3 3.9 5.2 3.5 8.7-.6 4.8.8 7.3 3.1 9.1 2.3 1.9 4.4 4 7.2 6.4 2.7 2.4 6.1 3.8 10.6 4.9 1.7 1 3.4 1.4 4.6 2.6 4.1 4.1.2 9.3-3.4 9.8-3.1.4-5.4 3.8-5.1 5.2 1.4.1 2.6.1 3.3.9 2.4 2.3 1.9 4.2 1.9 5.5 0 3.3 2.7 6 6.4 6.1m-156-.1c-1 3.9 4.5 7.7 11.1 6.3 2.5-1.9 4-2.8 5.1-4.3 1-1.2 2-1.5 3-2.1 1.1-.7 2.1-.9 3-2 2.5-3.1 3.8-3.6 5.1-4.9 1.8-1.9 2.4-2.8 3.5-4.5 1.4 2.3 3.7 5.4 5 9.5.9 3.1 2.5 2.9 2.9 5 1.7 8.6 3.2 11.8 11.9 10.9 1.3 4 4.2 4.2 5.1 7.2m-101.5 22.5c-4.8-5.8-7.8-18-1.1-23.8 7.5-6.4 8.9-11.9-.7-22.7m238.8-94.4c-.6 3.4-1.1 5.7-.5 7.7.4 1.3.8 2.5.8 3.4-.1 2.5.2 5.9.6 8.4.4 2.8-.3 5.7-1.2 6.7-2.4 2.5-6.1 6.1-8.1 8.1-1.7 1.7-4.2 3.5-7.2 4.7-2 .8-4 2-6.7 2-2 0-4.7 0-6.7-.2-9-.9-8.5-1.2-12.8 1.8-3.7 2.6-6.1 5.3-10.3 9.9-4.2 4.6-4.8 6.6-5.4 8-2.4 6.2-4.2 4.6-6.4 4.9-2.4.3-7.2-.1-8-.1-3.6-.1-3.1 1-3.1 2.6 0 2.8.6 6.6.4 9.2-.2 1.9-.3 4.2-1.4 5.7-1.5 1.9-2.2 2.9-2.3 4.7-.1 1.6-1.4 2.9-2.2 4.3-.6 1.1-1.4 2.2-2.1 3.3-1 1.5-2 3.9-3.4 5.1-1.6 1.5-4 4.7-5.7 7.4-1 1.7-1.4 3.2-3.6 4.9-3.8 2.8-7.6 7.6-8.4 11.9-.5 2.5-.5 4.5-.3 8.5m67.4-59.4h9.9c2.5 0 3.2-.1 4.4-.8 1.3-.7 1.2-.8 3.9-1 1.1-.1 3.7.1 3.7.1m-27.7-67.2c3.1 1.7 3.6 2.6 3.7 5.9.1 5.9 1.9 7.1 2.8 8.5.5.7 2.1 2.1 1.5 4.3-.3 1.1-.2 2.6-.1 3.7.3 2.2 1.4 3.2 2.4 4.7.9 1.3 3 3.2 4.1 4.3 2.8 2.9 6.5 5.1 8.9 7.4 2.6 2.4 9 6.3 9.1 23.8m-31.9.7c-3.5-3.6.2-9.5 8.5-4.6 1.4.9 5.4 2.1 10.4.9 1.1-.3 3.4-.6 4.6-.7 1.8-.1 3.8.2 4.7-.8 1-1.1 3.6-.7 3.6-.7m-5.8-15.2s3.4 1.4 4.7 1.4c1.9 0 5.3 1.6 7.5 3.7 3.1 3 8.1 4.8 10.2.7.6-1.1 1.8-2.6 4.1-3.4 1.2-.4 2.8-.6 4-1 4.3-1.6 8.3.5 9.9 2.9 2.2 3.3 5.2 3.5 7.1 3.4m-107.9 28.3s7.9 9.9 9.6 12.1c5.4 6.7 6-1 6.4-3.9.5-3.6 2.9-4.4 6-4.5 1.8-.1 6.2.3 8.1-1.7m-94.5 26.6c.9-3 3.1-2.2 3.4-6.8.2-3.4 3.1-5.6 5.8-5.6 1.1 0 3.4-.1 4.5.1 2.6.3 5.9 1 7.4 2.2 2.8 2.1 4.1 1.8 7.8 1.8 2.5 0 4.9-.2 7.5-.2 1.6 0 4.1-.2 5.5.5 2.7 1.2 9.5.6 9.5.6m-22.5-92.3s4.6 5.4 7 7c2.8 1.9 4.1.4 4.8-.6 1.8-2.5 4.6-2.6 5.4-1 .5 1.2 1.7 2.8 3.2.9.5-.7 2.8-1.3 4.5-1.4 2.6-.1 4.3-1.3 5.9-3.7.9-1.3 1.6-2.1 2.9-4.3 2.7-4.8 6.6-3.1 8.6-.7 2.6 3.1 2.9 7.8 6.6 10m-40.2 1.6s-3.2 5-3.2 8.6c0 3.3.3 7.6.2 11-.2 4.9-.5 3.3-1.4 4.4-.9 1 0 3.2.1 4.6.1 1.1.5 2.3.6 3.4.1 2.7 0 5.2-.1 8.7-.1 2.7-1.4 6.6-3.7 8.1-5 3.3-1.7 6.6 1.1 8.5 3.1 2 5.3 6.8 6.4 10.4 1.3 4.2.6 9.5-.3 15.9m-60.4-52.2s6.8 5.1 9.1 7.5c3.1 3.2 4.7 3.6 9.5 3.7m5.7-14.5s2.3-.5 3 .7c2.2 4.3 5.2-.1 6.3-1.8 2-3.3 4.2-3.4 7-3.4 5.1.1 15.8 0 15.8 0m-52.8 42.6c1-3.3 5.3-6.7 11.6-7.1 6-.4 12.1-5.6 5.4-9.9-2.2-1.5-3.2-7.3.2-9.6 3.9-2.8 3.5-8.8 3-15.1-.1-1.6-.7-3.9-.7-5.5 0-3.9.2-9.6.1-13.6-.1-5.6 2.2-6.7 4.5-7.4m-82.4 75.9c1.1 2 2.9 3.9 5.5 5.5 5 3.2 3.2 5.7 1.9 6.9-4.8 4.5 2.4 6.7 4.6 6.4 3.2-.4 7.7 3.1 9.1 6 1.6 3.6 4.1 6.4 8.5 6.1 3.1-.2 5.5 3.6 7.5 5.9 2.6 2.9 3.7 5.6 6.3 5.3.7-.1 3.1.2 3.8.5 2.4 1 3.8-1.8 5.3-3.9 2.5-3.6 5.7-5.1 7.7-5.1 3.1-.1 7.8-2.5 7.7-6.3-.2-4.4-.1-10.7-.4-14.2m-41.2 17.7c2.3 11.6 2.4 7.5 1.5 18.9m-3.1 11.3c2.3 1.4 8.4.5 14.3.2m-.8-51.4c1.9 2.1 4.9 7.2 4.3 12-.4 2.6.7 5.7 1.8 7.9.6 1.2 1.8 3.3 2.3 4.6 1.7 3.8 3.7 6.7 6.9 10.2 1.7 1.8 4.1 2 4.3 8.3.2 5 0 11.4.2 16.4.1 3.8-1.2 6.4-2.7 8.4-1.1 1.4-1.9 3.2-3.2 4.3-3.7 3-6.7 4.4-1.8 8.7 2.3 2 4.2 2.9 7.4 3.5m-18.9-54.8c-.6 1.5-.7 2.7-.6 4.5 0 3.3-.2 8.2 0 11.5.2 2.2.3 4.2 1.1 6.4.9 2.5.9 6.9-1 8.9-1.6 1.7-2.6 5.4-2.5 7.6.1 1.7-.2 4.8.6 6.3 1 1.6 2.1 1.3 3.1 1.9 1 .6 2.9 1.3 4.1 1.2 1.6-.1 4 0 4 0M98 613.7c-.4 5.1-.2 8 5.4 11.6 10.4 6.8 9.2-2.7 10.6-6.9 1.3-3.9 3.5-7.6 6.3-10.1 1-.8 3.4-1.8 4.3-2.7 2-2 3.8-2.1 6.1-1.8 7.2.7 9.4-4.4 11.5-8.1 5.3-9 5.3-7.5 13.6-7.5 8.8.1 8.3 0 15.6-6.3 2.2-1.9 4.3-5.2 7.1-6.7 1-.5 2.3-.8 3.8-1.4 1.6-.6 2.8-.9 4.4-.6 1.8.3 3.2.2 6.1-1.8 4.7-3.1 5.9-.6 7.3.9 1.8 1.9 4.5 2.7 6.3 2.6 2.3-.1 7.2-.2 7.2-.2m-46.7-9c-.4 3.4.2 6.6-4.7 10.1-5.7 4.1-4.8 10.1-.5 11.2 2.4.6 4.5 3.8 4 5.3-.8 2.1 1.3 5.4 2.2 6 2.1 1.6 1.9 3.5 2.5 5.1.5 1.3 1.3 3.5 2.1 4.7 1.6 2.4 4.5 7.8 4.5 7.8m-63.7 5.1s2.6 3.2 3.8 4.7c1.1 1.4 1.5 3.3 3.6 4.8.9.6 3.1 1.7 3.1 1.7m18.7 68.8c5.2-6.2 4.7-4.2 3.4-8-.3-.9-1.4-1.2-1.6-2.8-.2-1.4-.3-2.2-.2-2.9.3-1.2 1.6-2.3 2.6-2.9 1.3-.9 3.6-3.6 5.2-4.8 1.6-1.2 2-3.5 1.7-5.3-.3-2.3.8-4.5 2.4-5.6 3.2-2.2 5.5-6.6 7.3-9.7 1.2-2 .7-4.1 4.5-6.2 1.7-1 4.7-2.4 5.9-3.5 1.3-1.2 5.3-1.5 8.4-3.3 1.6-.9 6.1-1.1 8.3.7 1.3 1.1 3.1 1.6 5 1.4 3.2-.3 3.8.4 5.9 1.6 5.1 3 14 11.9 14 11.9m-29-16.4s-.8-4.3 1.1-5.5c1.1-.7 3.4-1.9 4.2-2.7 1.5-1.5 4-1.8 6-2.2 1.6-.3 3.2-.5 4.7-1.2.9-.5 3.4-1 4.5-1 5.1-.3 8.6-4.4 11-6.5m-35.3 10.3c3.3 2.8 3.7 5.4 3.5 8.8m-164.5 40s-.4 4.2.2 5.2c.5.9 1.4 1.8 2.3 2.8 1.5 1.7 3.5 3.9 5.2 4.3 1.9.5 3.4 1.2 5 2.5 1.2 1 4.1 1.5 4.1 1.5m-7.6-25.1c2.1 2.7 3.9 2.7 5.9 2.7 5.3.2 11.2.1 15.2.1 2.6 0 4.8.9 2.4 4.1-1 1.3-1.8 2-2.9 3.4-2 2.6-3.2 3.5-5.9 5.9M50 701s1.8-2.3 2.9-2.8c1.1-.5 2.5-1.2 3.3-1.7 1.8-1.1 3.9-1.1 5.9-1.4 1-.2 5.6-1.3 5.9-5.1.1-2 .4-4.9.2-7-.3-2.8 1.7-6.1 6.7-8.2 3.3-1.3 7.8-8.3 7.8-8.3m-15.5 25.9c4.7 4.2 5.8 6 7.8 1.8 2.8-5.7 9.9-7.4 9.1 1.1-.4 4.6 6.7 13.9 12.1 13.9 1.8 0 4.4-.5 5.9.6 1.2.8 3.8-.1 5-1.7 1.9-2.7 8.7-1.9 8.7-1.8m-26.2-.3s-4.1 5.9-7.2 9.3c-2.9 3.1-7.8 6.2-3.6 11.5 1.3 1.6 2.3 4.2 2.4 6.3.1 2 0 4.2-.2 5.9-.5 3.3-1.9 5.8-5.7 6.6-3.4.7-8.1 3.3-8.1 3.3M47 745s10.8-1.2 14.8.2c3.7 1.2 7.5 5.1 9.1 8.9 1.7 4.3 4.2 7.6 6.9 9.2 5.3 3.2 5 3.5 7 4.8 5.3 3.4 3.4 10.5 3.4 10.5"/><path id="path5492" class="st0" d="M586.7 657.6c-69.9 0-126.5 56.6-126.5 126.5h2.7c0-68.4 55.4-123.8 123.8-123.8v-2.7z"/><path id="path5109" class="st1" d="M413.7 556.2c-.5-.1-1.8-.6-2.3-.9-1.7-1-2.8-3.4-2.5-5.2.1-.8-.2-2.3-.6-3.1-.4-.9-1.2-1.9-1.9-2.4-.5-.3-1.7-.7-2.4-.7h-.4l.2-.5c.4-1.1 1.8-2.6 3-3.2.4-.2 1.1-.4 1.6-.5 1.3-.3 2.3-.8 3.2-1.7 1.2-1.1 2.1-2.8 2.3-4.1v-.4l6.1-.1c6.7-.1 6.4 0 8-.9l1.2-.6c.7-.2 3.6-.3 4.8-.2l1.1.1-.1.8c-.1 1 .1 3.6.4 4.6.4 1.4.9 2.5 1.6 3.5.4.6 1 1.5 1.4 2 2 3 2 6.2-.1 8.1-1.1 1-2.6 1.4-3.6.9-.9-.4-1.3-1-1.7-2.5-.5-1.9-1-2.6-2.2-3.2-.6-.3-.8-.3-3.2-.3-2.7 0-4.8.1-6.1.4-2.2.6-4.7 2.6-5.8 4.7-.5 1-1 2.9-1.1 4.3-.1 1.3 0 1.2-.9 1.1z"/><path id="path5113" class="st1" d="M413 530.6c-.6-.9-1.8-2.1-2.8-2.7-2.7-1.7-3.1-2.1-3.1-3.4 0-1.5 1.8-3.1 3.8-2.9 2.2.2 3 .8 5 1.7 3.5 1.5 3.7 1.6 8.3 1.2 2.9-.2 5.2-.7 7-.9 3.2-.3 4.7-.4 5.2-.9.7-.7 2-.8 2.7-.7.1.3.1.7.1 1 .1 1.3.1 3.8.1 3.8s-1 .4-1.4.7c-.8.4-1.7 1.3-2 2-.2.4-.5 1.3-.5 1.3s-1.6-.1-3.5 0c-1.9 0-3.9.5-4.6.9-.9.5-2.9.8-7.2.8h-6.2l-.9-1.9z"/><path id="path5115" class="st1" d="M329 596.8c0-.1 1.5-1.6 3.5-2.9s4.1-2.8 4.5-3.6c.7-1.3.6-1.4-.3-2.1-1.4-1-5.4-.6-9.3 1.1-4.5 1.9-4.9 1.8-6.6-.6-1.3-1.9-1.7-2.6-2-6.5-.2-2.5-.3-4.7-.5-4.9s-1.2-.1-2.1.2c-1 .3-1.5.4-1.5.4s-1.3-1.9-2.5-3.3-2.3-2.9-2.3-3.4.6-1.4 1.2-2.1c.8-.8 1.4-2.3 1.8-4 .4-2 .6-3.4 1.7-4.4 1.4-1.2 2.2-1.6 5.5-1.6 4.1 0 7.5.5 9.7 2.1 1.4 1 3 2.2 10.6 1.9 4.5.1 6.2-.7 9.1 0 1.8.4 6.6 1.1 7.6 1.1l2.5-.1-2.2 3.4c-.9 1.4-3.3 4.2-5.4 6.3-2.5 2.4-4.3 4.7-5.2 6.7-1.3 2.7-1.5 3.5-1.5 7.9v4.9l-3.3.7c-1.8.4-4.9 1.3-7 2-3.3 1-6 1.4-6 .8z"/><path id="path679" class="st1" d="M270.2 638.3c-2.2-1.4-2.3-1.6-2.3-6.1 0-3.8.4-5.3 1.8-7.9 1.6-2.7 2.1-4.7 2-6.3-.1-2.5-1.6-6.1-1.8-10-.1-3.7.4-14.8.4-14.8s1 1 1.7 1.5c1.4 1.2 8.1 2 10 .2.7.3.6.9 2.5 2.8 1.4 1.4 2.8 2.6 3.4 3.8 1 2.3.8 6.6.8 13.1 0 0 .1 9.9-.6 11.9-.4 1.2-1.8 3.3-1.8 3.3-1.2 1.8-3.4 4.5-5 5.9s-2.8 2.9-2.8 3.3c.1 1.3-5.9.8-8.3-.7z"/><path id="path681" class="st1" d="M408.5 224.7c-.8-.3-2.5-1-3.7-1.5-3.5-1.3-6.1-6.1-5.6-10.4.3-2.7.8-3.7 3.4-5.8l3-2.6-.5-4.1c-.4-3.2-1-4.7-3.1-7.1-2.5-2.9-8.8-8-12-9.6-1.5-.8-1.6-1.3-1.6-8.8s.1-8.2 2.1-11.5c1.5-2.7 3.2-4.2 6.5-6.3 12.7-7.7 17.8-15.8 13.1-20.6-4.7-4.7-5.3-8.3-1.8-11.3 1.8-1.5 2.9-1.8 6.3-1.8s4.5.3 6.2 1.8c1.9 1.6 2.6 1.8 9.4 1.8 6 0 7.7-.2 9.6-1.4 3.6-2.2 4.3-3.9 4.7-12.4.4-7.7.4-7.8-1.4-9.2-1.6-1.3-1.7-1.6-1-3.5.4-1.2 2.2-3.4 3.9-5.1l3.2-2.9v-7.8c0-6.1-.2-8-1.1-8.7-1.3-1.1-1.4-2.4-.1-3.5.7-.5 1.1-3.6 1.4-9.6.3-5.8.9-9.7 1.6-11.2 1.1-2.2 1-2.7-.1-6.2-.8-2.4-2.5-5.2-4.7-7.6-1.9-2.1-3.4-4.2-3.4-4.7s-.6-1.5-1.4-2.2c-3.5-3.2-2.4-10.2 2.1-13.3 2.7-1.9 2.8-2.1 3-6.4.2-3.9.4-4.5 2.1-5.4 3-1.7 5.5 0 14 9.4 4.3 4.7 10.5 11.3 13.9 14.6s8.8 8.6 11.9 11.8 6.7 6.3 7.9 7.1c1.2.7 4.4 3.1 7.1 5.3 5.5 4.4 8.1 5.9 11.4 6.6 1.2.3 4.2 1.9 6.7 3.7 5.7 4 9 5 21.9 6.3 14.9 1.6 19.5 1.4 22.1-.5 5.9-4.5 7.7-6.5 8.5-9.2.5-1.9 2.2-4.3 5.1-7.4 2.4-2.5 4.6-4.5 5-4.5s.5 1.8.3 4.6c-.3 3.8-.8 5.3-3.2 8.9-1.7 2.6-3.1 5.5-3.3 7.4-.6 4.2 1.3 13.3 3.5 16.6.9 1.4 2.6 4.1 3.7 6 3.1 5.2 6.5 8.8 8.7 9.3 1.3.3 3.6-.2 6.8-1.4 2.6-1 5-1.8 5.2-1.8s-.8 1.2-2.2 2.7-3.7 4.1-4.9 5.8c-1.7 2.4-3.6 3.8-7.4 5.7-2.8 1.4-6.5 3.8-8.2 5.5-3.5 3.5-5.2 3.7-7.9 1.2-2.3-2.1-3.7-2.2-4.6-.4-.8 1.5 0 4.5 1.3 5.3.4.3.8.9.8 1.5 0 1.6-6.7 1.3-11.8-.4-2.5-.9-5-1.3-6.3-1.1-3.8.7-19.6 16.8-24.6 25.1-4.7 7.9-4.9 8.7-5.6 21.6-.4 6.6-.8 12.2-1 12.4s-2.5-.7-5.1-1.9-7.7-2.7-11.2-3.3c-6.5-1.2-13.7-4-17.4-6.9-1.2-.9-3.9-3.1-6.2-4.9s-6.3-4.6-9-6.4c-4.4-2.8-5.5-3.2-10-3.4-4.8-.2-14.6 1.3-17.4 2.8-.7.3-4 3.8-7.3 7.7-3.4 3.9-6.4 7.1-6.7 7.1-.3 0-1.3-1.8-2.1-3.9s-2.5-4.9-3.6-6c-1.8-1.9-2.4-2.1-6.4-2.1-5.1 0-8.4 1.3-11 4.4-1.5 1.8-1.8 2.8-1.8 6.7 0 8.1 3.8 11.1 14.4 11.3 6.8.1 7.7.6 7.1 3.9-.5 2.4 1.1 3.5 8.7 6.2 3.4 1.2 5.6 2.4 5.8 3.1.1.6-1.3 2.8-3.2 4.8l-3.4 3.7-4.1-.5c-3.1-.4-4.7-1-6.5-2.6-1.3-1.1-2.8-2-3.3-2-.9 0-3.2 2.5-6.3 6.7-.6.9-1.2 3.8-1.4 7.2-.6 8.2-3.1 11.3-7.5 9.5z"/><path id="path683" class="st1" d="M256.8 613.8c-.6-.3-.4-1 .9-2.5 1.4-1.7 1.8-2.9 1.7-5.1-.1-1.6.1-3.5.4-4.2.6-1.3 0-12.1-.8-15.5-.2-.9-.5-2.1-.5-2.1s1.2.1 2.2.1c1.7 0 2.8.8 5.2 3.4l3.6 4.2s-.7 7.6-.7 10.2c0 3.1.9 11.3.9 11.3l-2.8.2c-2.4.5-8.9.5-10.1 0z"/><path id="path685" class="st1" d="M274.9 594.6c-2.5.3-3.5-2.1-6.5-5.5-4-4.5-5.1-5.3-7.7-5.7-4-.6-5.9-1.9-7.6-5.3-2-3.8-5.4-6.2-9.9-6.9-2.2.4-4.2-1.2-4.9-1.9-1.1-1.1-1-1.3.4-3.3 2.5-3.3 2.1-5.3-1.7-8.2-1.8-1.4-3.7-3.1-4.3-3.9-.8-1.2-.8-1.4.4-1.8.8-.2 3-2.3 5-4.7 3.8-4.4 5.4-5 7.4-3 .9.9 1.1 1.9.7 4.3-.7 4.7 0 7.1 2.3 7.5 1.5.3 2.2 0 3.2-1.3 2.5-3.4 4.9-2.1 6.6 3.5.9 2.9 3.7 4.7 8.1 5.3 1.6.2 3.2-.1 3.2-.1s1.3 1.9 2 3.3c.8 1.6 2 4.9 1.5 8.2.4 4.7 1.4 6.4 4.4 12.2 2 3.7 3.7 6.6 3.7 6.6s-.5.9-1.7 1.1c-1 .4-2.8-.8-4.6-.4z"/><path id="path687" class="st1" d="M284.4 644.9c-1.2-.8-2.9-2-3.7-3.1 0 0-1.3-1.6-1.3-2.3.1-1.4 3.7-4.1 3.7-4.1 6-6.3 6.7-8.3 6.7-20.2 0-5.5-.2-11-.4-12.1s-1.8-3.6-3.5-5.5c-1.6-1.5-3.2-3.6-3.2-3.6s1.4-2.3 3.8-4.4c1.5-1.3 3.6-2.3 5.4-2.6 2.1-.3 4-.9 5.7-2.6l1.9-3v-6.2c-.2-3.5-.4-7.1-.2-7.1s1 1.4 2 2c.9.6 3 1.2 4.6 1.2h2.8s1.3 2.3 2.7 3.8l2.5 2.8-2.2 1.3c-2.5 1.5-7.1 9.1-7.1 11.7 0 1.4 1.1 2.4 5.5 5.3 3 2 7 4.4 8.8 5.4 3.7 2.1 7 5.6 7 7.4-.1 2.6-4.2 5.8-7.5 5.8-3.2 0-12.1 2.9-15.6 5.2-2.8 1.8-3 2.1-3 5.1 0 4.4-1.3 6.6-6 10.2-4.6 3.5-5.3 4.6-5.3 8.1 0 1 .4 2.9.4 2.9s-3.5-.7-4.5-1.4z"/><path id="path689" class="st1" d="M444.7 562.7c.2-.5-.3-4.6-.9-6.6-.8-2.6-1-7.1-.9-12.1 0 0 0-4.9.7-6.4.7-1.4 4.5-4.5 4.5-4.5 3.3-3.1 4.2-4.8 3.8-6.1-.9-2.7-4.7-3.2-7.1-2.5-.7.3-4.9 1.8-4.9 1.8s.2-3.1-.3-6.4c-.2-3-1.3-6.4-2.2-8.3-.8-1.8-2-4.1-2-4.1s4.1.4 7 1.8c1.2.6 2.5 1.5 3.4 2.4 2 1.9 4.4 3.4 6.3 3.2 1.9.1 2.9-1 5-3.9 2-2.2 3.8-2.4 6.8-3.2 4.9-1.2 6.7-.2 10 3 1.4 1.4 3.5 2.9 5.2 3 1.3.1 2.5.3 2.5.6 0 .8-3.1 3.2-7.6 5.4-2.1 1.1-4.6 2.3-5.2 3.4-.7 1.3-1 5.7-1.3 12.8 0 0 .1 8.5-1 11-.2.4-1.2 1.7-1.2 1.7-1.1 1-4.8 2.4-6.7 4.5-3.1 2.1-3.6 3.1-4.7 5.6-.8 1.8-1.9 3.7-2.6 4.2-1.8 1.4-4.8 2.9-5.7 1.2.2.3-1.1-1-.9-1.5z"/><path class="st1" d="M427.5 501.1l3.8 3 2.8 2.9 2.3 4 1.6 4.2s.9 5.3.9 5.5-2.2.4-2.2.4l-1.5 1.1-3.7.2-4.4.6-3.1.7-4.1-.2-3.3-1.1-3.1-1.5-2.2-.4h-2.1l-2.4 1.2-.9 1.6v1.7l.4 1.1-3.6-1.1-3.1-1.5-3.7-2.6-2.3-2.2 2.2-3.4 4.8-5.3 4.2-4.5 3.8-3 3-1.8 1.3-.4h2l8.7.7 3.9.1z" id="path441"/><path d="M270.1 614.7l.5 2.6v3.3l-.5 1.6-1.9 2.2-1.3 2.9-.3 3v3.7l.3 3.4 1.7 1.6 3.4 1.5 2.4.7h4.5l1.6 2.3 2 1.5 3.1 1.8 3.1.7-.2 4.6-.5 2-1.6 1.2-1.8.7-1.6 1.2-2 1.9-1.2 1.2-1.5 1-1.5-.1-1.7-.7-1.9-.3-1.7-.8-1.5-1.2-1.8-1.2-1.8-.8-2.4-.6-2.4-1.3-1.4-.9-1.3-1.7-1.1-1.3-1.1-1.1-.7-.9-.6-1.4-.4-1.1-.9-1.3-.7-.6-.9-.6-.9-.3-1.1-.4-.8-.6-.9-1-.7-1.4-.4-1.7v-1.6l.2-1 .3-2.6-.1-1.7-.2-2.2-.4-1.8-.3-1.8-.1-2 .2-1.5.6-1 .8-.8 1.2-.7 2.5-1.7 1.3-1.1 1.6-2.2 2.9.8 2.5.1 3.2-.1 3.4-.2z" class="st1" id="polygon443"/><path class="st1" d="M69.5 648.6l2.6 5.4s1.1 2.4 1.5 3.2c.5.9 2.2 3.6 2.2 3.6s1.9 2.1 2.7 2.7c.8.7 3.6 2.5 3.6 2.5s-2.3 3.2-3.1 4.2c-.6.7-1.7 2.1-2.4 2.7-.4.4-1.3 1-1.8 1.3-.3.2-1.4.6-1.4.6l-1.6.9-1.5 1.1-1.4 1.5-1.1 2-.4 1.8.1 2.1v2.1l-.1 2.9-.2 1.1-.3 1.3-.9 1.3-1.5 1-1.7.7-1.5.3-2.1.2-1.1.3-1.3.4s-1.8 1.1-2.5 1.4c-.5.3-1.5.6-2 1-.6.4-2.2 2.1-2.2 2.1l-1.7-3.2s-.6-1.3-.9-1.7c-.5-.6-1.9-1.9-1.9-1.9l2.1-1.9 1.5-1.3 2.2-2.4 2.3-2.8 1.1-1.2.6-1 .5-1 .1-1.1-.4-.7-.7-.7-.8-.2-1.6-.3-3.1.1H40l-4.4-.1-1.7-.3-1.3-.7-1.5-1.6 1.5-.3 1-1 .3-.9.3-1.6.4-1.6.8-1.3 1.8-1.1 2.5.2 2.1.9 2.2-.2 2.3-1.9 1.3-3.2s1.1-3.5 1.8-4.5c.9-1.5 3.5-3.9 4.8-5 1.2-1 3.9-2.6 5.9-2.2.9.2 2.7.1 3.5-.3.7-.3 2.3-2 2.3-2s.6-.5.8-.6c.5-.6 2.8-1.1 2.8-1.1z" id="path445"/><path d="M314.1 476.4l-1 .3-1.3.5-1 .7-1.1 1.4-.7 1.6-.2 2.3v10.1l-.2 3.5v1.4l.1 1 .3 1.7.4 2.4.1 1.8.1 2.4v2.6l-.1 2.9-.6 2.2-.7 1.2-.8 1-1 .9-1.2 1-.7 1.7h-1.8l-2.2-.4-2.2-.7-1-.8-1.7-1.6-1.5-1.5-2.2-1.7-2.3-1.9-2.8-2.1 3.1-4.2 6.4-8.9 1.8-3.3 1.5-2.9.6-2.4.4-2.5.1-2.9-.1-3.8-.4-3.8-.8-4-1.7-3.8-.9-2.5-.2-2.6.7-2.1 1.6-1.9 1.6-1.8 1.8-2.2 2.5-1.8 2.3-1 3.4-.6 2.7-1.2 1.8-2.1.6-1 .7-.7 1.2-.8 1.5-.6.9-.3 1.3-.2h1.1l.9.4.7.4.7.8.3.8v1.8l-.1 1.3-.2.9-.3 1-.3.6-.5.7-.5.6-.6.7-.5.8-.5.7-.7 1.2-.5.6-1 1-1 .9-.9.7-.7.5-.9.6-1.2.7-1 .5-1.4.9-.9 1-.7 1.3-.2.8.2.6.5.7.6.4 1.2.3.8.3.7.4.6.7.2.6v.7l-.3.6-.5.6-.4.5-.2.6v1.4l.2.8z" class="st1" id="polygon447"/><path d="M50.8 701.1l2-2.3 4.1-2 1.7-.7 2.7-.3 2.8-.5 3.1-2 3 2.7 1.9 1.2h1.5l1.2-1 1.3-2.9 1.9-2 2.1-1.2h1.2l1.2.4.7 1.4.4 2.6v3.1l1.2 2.7 1.6 2.8 2.5 2.8-3.1 4.5-3.4 4.2-3.3 3-2.2 2.9-.5 3.1 1.4 2.7 2 2.9 1 3.8-.2 4.6-1.1 4.7-1.7 1.4-1 .9-2.9.9-3.1.9-3.4 1.6-2.6-2.1-2.6-1.4-4.4-.7-5.1.2-6.1.5 5.6-6.6 3-4.2.5-3.3v-4.8l-.5-3-.3-.4-1.8-.6-.5-.3-.1-.4.4-.6.7-.5 1.1-.6L56 717l.8-3 .1-2.7-.7-2.5-1.8-2.6-1.8-2.3z" class="st1" id="polygon449"/><path d="M449.2 460.1l-.4 2.2-.2 2.3v1.7l.6 2.1.4 1.1v1.5l.1 3 .3 3.4.4 3-.3 3.1-.6 1.6-1.6 1.5-2 2-2.3 2.4-2.8 2.7-1.8 1.5-2.3 1.5-2.2 1.2-2.2.8-2 .8-2.2.5-2.5-2-4.8-4.3-3-3.4-1.3-2.1-.5-1.5v-3.4l.2-1.7-.4-1.7-2-2.4-1.2-2.1-.6-2.6-.3-3.3-.1-1.7-.4-1.2-.8-1.2-1-.8 2.5.4h1.9l1.4-.2 1.5-.5 1.2-.6 1.4-.9 2.3-1.4 2.3-1.8 2.4-2.8 1.8-2.1 3.1-2.8 1.9-1.2 1.7-.5 1-.2 1.5.2 1.4.5 1.6.8 1.9 1.8 3.4 3.3z" class="st1" id="polygon451"/><path d="M382.5 498.2l.9.2.7.3.8.9.5 1.1.3 1.4v2.1l-.2 2.5-.2 2.2.2 1.8.8 2.1.9 1.5 1.5 1.6 1.6 1.4 1.8 1.6-.3 1.1-.7 1.7-.9 1.4-.7.8-.8.3-.6.1h-1.9l-.8.1h-5l-2.7-.2-1.5.1-.9.3-.3.2-.4.4-.2.6-.1.8v4.6l.4 4.9-.3 2.8-.6 2.4-1.2 1.6-1.1 1.9-.5 2v1.1l-.4.4-1.8 2.9-2.3 3.7-2 3.2-1.1 1.3-3 3.4-3.3.3-3.8-.3-1.7-.3-.8-.4-.9-.2-2.7-.1.7-5.7.2-4.2-.3-3.6-2-6.5-3-4.5-3-2.3-1.5-1.2-.8-1.1-.3-1.2.3-1 .6-1 1.3-1.1 1.1-.8 1-1.2.8-1.6.6-1.5.7-3.3v-4l.1-4.9-.6-3.6-.5-3.2v-.7l.4-.6.6-.1.5-.6.2-1.9v-4.8l-.1-6v-2.3l.5-2.4 1.3-3.3 1.1-2 .6.1.5-.1.8-.3.5-.4.6-.6.3-.4.5-.7.7-.6.8-.3.8-.2h.8l.6.4.2.4.4.8.6.6.6.5.8.1.7-.2.8-.5.4-.5.9-.4 1.1-.4 1.4-.2 1.7-.1 1.6-.5 1.3-.8 1.7-1.6 1.8-2.7 1.2-1.8 1.2-1.9 1.2-1.2 1.5-.5 1.6.2 2.1 1.2 1 1.3 1.4 2.6.8 2 1.2 2.1 1 1.3 1 .9-2.5 2.1-2.6 2.8-2.9 2.5-1 1.1-.9 1.2-.8 1.6-.3 1-.2 1.3v1.3l.4 1.7 1 1.7 1.8 1.5 1.9.7 1.1.4z" class="st1" id="polygon453"/><path d="M215.1 629.3l1.9-1.7 1.4-1.3 1.1.3.9.1h1.2l1.1-.2 1.2-.1.9.1.6.2.5.5.1.5V629.8l.1 1.1.2.9.4 1.1.5.9.7 1.2.5.4 1.2.6.7.6.4.8.3 1 .3 1.1.2 1.4.1 1.7-.2 1.3-.4 1.1-.8 1.4-.8.9-1.5 1.2-1.6 1.1-1.8 1.5-2.4 2.1-2.4 2.4-2.7 2.8-1.8 2.3-3.2-3.1-2.3-2.2-3.4-2.7-2.6-2.2-2.9-1.7-1.8-1-1.3-.4-2.5.1h-1.8l-1.5-.5-1-.6-1.2-.8-1.4-.6-1.5-.1-.2-1.9.3-1.7.4-.8.7-.5 1.4-.9 1.7-1 .8-.6.5-.4.8-.6 1.2-.4 2.1-.6 2.9-.4 1.8-.5 1.1-.4 1-.4 1.7-.5 1.6-.1 1.4-.2 1.1-.2 1.7-.6 2.1-1.2 1.3-1z" class="st1" id="polygon455"/><path stroke-width=".999999" stroke="#fff" fill="#c80200" d="M441.03321 220.7706c-2.81688-.14095-4.43278 2.61783-4.32326 5.1528-.0291 4.19735-4.15868 7.49376-3.36365 11.74565 1.79093 2.08725 5.13615 1.70166 7.59411 1.26137 3.86576-.77182 5.48972-5.20144 9.08969-6.36683 2.48321-.58174 2.82916 2.49871 2.86325 4.23313.16548 4.06038.67419 8.24632-.0993 12.24992-.83568 1.17413-1.82633 3.00405-3.36745 3.14396-2.25864-1.26839-4.43717-4.30534-7.34789-2.80747-2.73673 1.42204-2.60846 6.24492-6.15913 6.40534-2.68593-.62653-4.74667-3.19768-5.67869-5.69321-.88817-4.43474.89028-9.73795-2.64837-13.35803-2.7548-2.61965-5.93134 1.17324-9.02594.58523-2.23321.37753-2.53768 3.42957-2.64306 5.28191-.36504 5.27772.43364 10.68455-.68966 15.87856-1.58063 5.04847-5.93142 8.74429-10.86622 10.34665-1.46465.71883-4.31203 2.3981-2.63638 4.28285 2.57567 2.79953 4.10843 6.62786 7.21532 8.87189 2.71311-1.34706 5.35219-3.19711 8.54619-3.01162 7.06742-.41487 14.19787.0743 21.23302-.68915 1.40204-.55399 1.26062-2.49502 2.786-3.02338 1.90947-1.45913 5.57676-2.12634 7.04423.20013.98193 2.73438-.3239 6.36791 1.89584 8.57707 3.02005 1.32402 6.61351-.33835 9.04298-2.22097 1.67693-2.10486 3.27609-4.83233 6.33815-4.90212 3.47582-.17785 6.72871-1.81609 8.76105-4.67243-3.85201-3.84414-6.85634-8.42679-10.71912-12.25891-1.71691-2.40127-3.5388-5.09334-3.03361-8.18059-.13358-4.0768.21018-8.29436-.21414-12.28543-2.88175-3.36825-2.16758-8.01668-2.55182-12.11041-.15363-1.49048.41488-4.54792-1.74277-4.646-2.53588.57289-4.56798 2.99864-7.39777 2.28852-3.27021-.13866-4.58848-4.33054-7.90156-4.27843z" id="path462"/><path style="fill:#c80200;fill-opacity:1" stroke-width=".999999" stroke="#fff" fill="#c80200" d="M445.20811 275.41042c-2.33425-.10331-3.81926 1.79416-4.90533 3.56379-3.04612 1.62454-6.76638.8014-10.10106 1.06737-5.34167.24229-10.86872-.58042-16.0746.89413-1.39935.63392-3.02484 1.35439-4.14712 2.27526 1.8993 4.2396 1.05044 9.11932.52842 13.57584-.91756 3.8367-3.49914 6.93422-6.45017 9.42429-2.04376 2.02959-4.40619 5.86042-1.58776 8.24121 3.01157 2.73319 7.58845.18409 8.4748-3.33967.9465-1.8807.16909-4.48682 1.64963-6.04296 1.87878.23055 1.10266 3.02263 1.33028 4.33202.2293 3.3661-.88154 7.67853 2.18552 10.06327 1.74065 2.81984.79629 6.41418 1.13419 9.56753-.19502 5.58841.79582 11.46181-1.1626 16.82718-.39976 1.15717-1.45689 2.48288-1.56061 3.52023 3.63689.46904 7.44457-.15076 10.98329.69712 5.65004 2.00138 11.12936 4.62718 16.96004 6.04218 3.3831.14511 6.22507-2.30634 8.74753-4.27212 2.93509-2.72013.26002-6.64248-1.21431-9.36897-1.66646-3.32327-4.1864-6.04539-6.68094-8.73593-1.76262-3.15374-.53983-7.0033-.1-10.36504.23108-2.36075 1.77901-4.35286 2.26684-6.55106.21535-8.63331-.17263-17.31532.67973-25.91432.38373-2.20405 1.38242-4.27384 2.7235-6.00445-1.55989-2.81829-.71892-6.28917-1.83334-9.19639-.53447-.35318-1.23617-.31686-1.84597-.30051z" id="path464"/><path stroke-width=".999999" stroke="#fff" fill="#c80200" d="M414.17005 354.79282c.52993 6.41159-3.01046 12.1997-6.24461 17.44293-1.44291 2.60956-2.45087 5.87173-1.76175 8.81858 2.79033 3.07106 6.86027 4.67989 9.93756 7.47479 2.47752 1.94965 5.83006 5.27796 3.83904 8.64904-2.13303 3.06866-6.4051 4.99827-6.33795 9.2685-.60452 4.1396 2.15952 8.69961 6.1536 9.91595 5.36295.3852 10.8262.68315 16.17307.0461 3.28186-.92163 4.20866-4.46968 6.33969-6.68311-2.14008-1.92183-5.74999-3.35284-6.08021-6.56002 1.47765-4.83728 6.69242-7.33066 8.32883-12.14381 2.19536-4.89461 1.40459-10.44159 1.66544-15.65179.0159-3.50291-.049-7.14588-1.95572-10.21661-.86921-2.33617-1.30835-5.02209-.22917-7.37062-7.79887-1.0865-14.59633-5.79392-22.38207-6.86872-2.50689-.15268-5.02108-.0506-7.53097-.0808.0284 1.31987.0568 2.63974.0852 3.95962z" id="path466"/><path stroke-width=".999999" stroke="#fff" fill="#c80200" d="M453.55727 352.84899c-3.05203.99066-5.76362 3.12346-8.08338 5.31821-1.38764 2.05638-.43299 4.92696.33018 7.07643 2.82961 5.53366 1.60872 11.95258 1.60147 17.91119.12831 4.85907-1.46953 9.6879-4.70944 13.34088-1.57983 2.30653-4.61321 4.00258-4.947 6.95774.84352 2.42834 3.56978 3.6581 5.41859 5.19827 2.9226-2.40848 6.74554-4.56088 10.61812-3.07578 2.88559.93814 5.59972 2.71849 8.77778 2.22478 1.7504-.21963 4.12648.21835 5.43-1.08967-1.20373-5.36366-2.20104-10.95436-1.6389-16.46285 1.05912-4.23137 5.15475-6.67977 8.26583-9.35169 2.34487-2.08001 5.58305-3.25045 8.64272-2.10102 1.756.52905 4.31957 2.55242 5.8763.69697.68076-2.80009-2.24846-4.80771-3.0158-7.3037-1.90013-3.85684-2.26637-8.17499-2.798-12.35803-.73127-.75517-2.22728.55709-3.16585.52715-3.59847 1.37253-8.1462 1.80618-11.05455-1.24432-3.37701-2.49005-7.01933-5.09635-11.36939-5.27087-1.44087-.15881-2.71927-1.00572-4.17868-.99369z" id="path468"/><path stroke-width=".999999" stroke="#fff" fill="#c80200" d="M450.27569 406.46293c-4.44071.8838-7.67226 4.62508-9.88453 8.35863-1.4678 2.27204-4.0841 3.33863-6.73793 3.0554-4.95662.0972-9.91474.0716-14.87204.10813-2.30197 3.03094-4.1749 6.6103-3.65532 10.54362.30804 5.3149-4.72789 9.02662-9.55246 9.68377-2.29661.28344-5.08741 1.43345-4.94384 4.21341-.0214 3.16187-.26939 6.56409.91604 9.5373 2.18233 3.04213 5.11665 5.82217 5.5803 9.75865.0247 2.04029 2.78121 1.50174 4.23983 1.86641 3.08952.44104 6.09762-.57531 8.44718-2.59201 5.33542-3.39223 8.32381-10.03981 14.60851-11.97309 4.81606-1.26998 8.27951 3.17074 11.39612 6.04218 3.3392 2.96431 6.2321 6.6842 10.28077 8.6978 1.87638.75152 2.69609-2.0519 3.66227-3.14775 2.15533-3.734 7.32584-3.04036 10.76331-1.82135 1.11431.44808 2.79351 1.83817 2.74569-.39589 1.3872-4.23658 5.11266-7.54784 5.2209-12.24117.45606-5.47456.51833-11.07437-1.09903-16.37974-.97299-7.49996-3.57165-14.90938-8.30506-20.87868-1.29207-.96656-3.11357.36214-4.61133.20734-3.95835.77194-7.70196-.83666-11.28523-2.25407-.9456-.27293-1.92919-.41556-2.91415-.38889z" id="path470"/><path stroke-width=".999999" stroke="#fff" fill="#c80200" d="M404.94462 382.20901c-2.21256 2.59686-2.13137 6.03174-2.18167 9.23832.003 4.50129-.364 9.13323-2.7647 13.07935-2.15321 4.37018-5.59126 7.97055-9.81949 10.37443-5.09481 3.95605-9.9094 9.02895-11.26206 15.55249-1.84173 4.72039-4.42074 9.13661-5.78423 14.05069-1.88468 6.14474-7.20312 10.13018-12.01994 13.93262-3.17477 2.77707-7.04072 4.57445-10.236 7.33062-3.06586 1.9454-6.01292 4.16088-9.6096 5.05796-.6952.3159-2.60075.51646-1.21144 1.50059 2.24714 2.24945 4.36815 5.1857 7.48035 6.15557 2.26926-1.32147 4.23762-4.59826 7.28097-3.23803 1.26095.33985 1.42712 3.25757 3.01517 1.84344 3.04655-2.22736 7.86952-.92685 10.04448-4.56883 2.40696-2.572 3.47848-6.68879 6.9834-8.02341 4.27238-.91883 6.99068 3.33532 8.47272 6.69323 1.18039 1.98514 2.02787 5.13634 4.62457 5.5802 4.88885-1.12437 5.69105-6.84238 7.79981-10.58622 1.55043-3.30885 5.10011-5.41344 8.75894-4.94689 1.77776.36631.71022-1.50708.3416-2.27065-1.64764-3.47521-5.63849-5.82822-5.38387-10.0916.0782-3.04396-.59931-6.32507.4817-9.21596 2.59215-3.6329 7.85721-2.15896 10.93819-5.11177 3.02673-1.98323 2.87404-5.76127 2.9937-8.93882.0286-3.13052 1.94971-5.77913 3.62944-8.26835-2.67839-2.45485-5.5449-5.4368-5.18311-9.38768-.29264-2.87828.41468-5.8897 2.80557-7.73363 1.31555-1.72864 4.08673-2.95344 4.09031-5.36114-1.48858-4.30965-5.93408-6.60851-9.44649-9.11005-1.72835-1.01319-3.23378-2.41919-4.83832-3.53648z" id="path472"/><path stroke-width=".999999" stroke="#fff" fill="#c80200" d="M364.77899 398.34294c-3.19346.51008-3.81094 4.39011-4.8725 6.90597-.5415 1.85257-.2614 4.0304-2.11933 5.25887-1.84416 1.26277-2.35286 4.06627-.2923 5.41164 2.21223.28305 2.01723 3.10743 1.91236 4.80861.14877 1.69408-.67557 4.50497 1.17983 5.39663 3.29923-2.94585 6.71378-5.96046 9.19134-9.65283 1.14063-1.35229.61083-4.08494-1.51308-3.75907-1.27639.20682-2.71297-.052-2.82091-1.61407-.53843-3.42959 1.81557-6.4955 2.63133-9.67745-.0625-1.70115-1.53808-3.24427-3.29674-3.0783z" id="path474"/><path stroke-width=".999999" stroke="#fff" fill="#c80200" d="M465.08511 459.13999c-3.08315-.14721-4.48251 2.82983-5.92112 4.99688-2.05338 2.46783-5.31834.21776-7.1686-1.35986-.57339-.53296-2.10216-1.64669-1.94067-.0391-.39602 4.02735 1.12082 7.8947 1.07628 11.92482-.0244 3.55804 1.06337 7.49031-.63246 10.78995-3.67349 4.13998-7.44827 8.34684-11.96371 11.58009-2.5632 1.71698-5.72281 2.56737-8.26557 4.14222 2.3984 2.52379 4.84425 5.64033 8.62895 5.83234 4.7483.47393 7.72457 4.63983 11.88316 6.39122 2.17942 1.10692 4.34372-.40547 5.45205-2.26454 2.41401-3.42187 7.07914-3.97941 10.92494-4.51139 3.57511-.46879 6.56038 1.89971 8.65156 4.52465 1.29987 1.30519 3.36637 2.46441 5.18816 2.05999-4.27552-5.53496-10.52242-10.00566-12.46472-17.08469-2.06108-6.18198-.96869-12.83802-1.26664-19.22802-.37179-4.06094 2.06861-7.63775 3.42977-11.32224.19562-1.55743 3.08795-3.92092.75208-4.70988-1.89561-1.15838-4.14129-1.77415-6.36346-1.7224z" id="path476"/><path stroke-width=".999999" stroke="#fff" fill="#c80200" d="M403.07087 462.62865c-4.68119.0122-6.65744 4.96861-8.05686 8.65156-1.36786 3.3434-3.8423 6.82173-7.80244 6.99941-3.47818 2.16266-6.25729 5.34608-9.16483 8.21091-2.97726 2.5206-2.90535 8.20533 1.1086 9.64589 2.41747 1.17451 6.15034.47882 7.21658 3.60355 1.36383 4.16972-.56661 8.87556 1.30935 12.90096 1.42403 1.79616 3.14622 3.56553 5.10419 4.72098 4.02845-5.64045 8.75126-10.8696 14.13417-15.2449 2.432-1.88367 5.29907-3.60869 8.50738-2.96227 3.49142.17442 6.96382.73296 10.46533.68246-3.98145-3.26427-8.10146-6.74843-10.6017-11.32015-1.18505-2.5998.15208-5.73575-.83022-8.21797-2.84592-3.01314-3.93493-7.08611-4.07372-11.13362.0493-2.14489-1.51012-3.61448-3.20659-4.61634-.4911-.81195-1.54376-1.15912-2.3264-1.74749-.5726-.1892-1.18652-.19301-1.78284-.17298z" id="path478"/><path stroke-width=".999999" stroke="#fff" fill="#c80200" d="M393.29241 520.21673c-1.28853 2.28864-2.50051 5.37619-5.65365 5.33906-3.85059.47359-7.82802-.32077-11.62486.1736-.85535 4.89944.28664 10.0475-.60922 14.98051-1.53518 1.97943.64771 3.33961 1.72525 4.89821 2.96885 3.49291 5.51589 7.44802 8.94085 10.49771 1.60251 1.09486 1.98509-1.68518 2.29847-2.70365.59462-2.85849.80974-7.14685 4.51849-7.60891 3.0261-.81153 6.50651.0329 9.28351-1.53157.69865-2.03296 1.89784-4.00226 3.92363-5.02023 2.50769-.93475 5.78601-1.77315 6.35736-4.8744.7941-3.14994-2.09915-5.42444-4.7481-6.31962-4.68964-1.72845-9.67205-3.27187-13.2785-6.95251-.3724-.27593-.71783-.69342-1.13323-.8782z" id="path480"/><path stroke-width=".999999" stroke="#fff" fill="#c80200" d="M373.66099 543.8084c-1.44506 2.08496-1.56037 4.89464-3.1484 6.97738-2.76831 5.24414-6.5894 9.77348-10.1861 14.44153-2.25032 3.98118-5.23137 7.44434-8.58819 10.53695-3.20907 3.14358-5.49305 7.52046-5.13492 12.1132.32721 1.4994-1.29728 5.34221 1.43286 3.95639 7.21654-1.58722 14.6841-.69818 22.01038-1.07576 3.18086-.22988 6.56985.17318 9.60935-.83327 2.10298-2.87999.88911-7.20243 3.76896-9.72669 3.32724-2.92643 2.84958-7.60557 3.98487-11.47103 1.65036-2.90788 5.06967-3.62872 7.66924-5.39712 2.18572-1.27553 5.9772-2.56348 7.40345.37374 1.41311 5.50334-.14608 11.32388.8428 16.88014.8385 1.81125 2.07847 4.71882 4.4672 4.52528 2.172-1.03501.98593-4.32834 3.15027-5.53034 2.21663-2.36322 5.22103-4.20971 6.76519-7.08842.23217-3.6376.6168-7.41226-.12879-10.9988-1.20713-2.65985-3.84647-4.19445-6.56822-4.87124-3.59817-1.69342-2.99498-6.05349-3.98929-9.22606-.56558-2.35606-3.32976-2.45705-5.06379-1.36554-3.46867 1.20043-7.83451-.28515-10.76521 2.30115-1.70963 2.7778-.62642 7.00331-3.41795 9.12063-2.76761 1.11034-4.43827-2.33962-6.09978-3.91605-2.72461-3.18677-5.15152-6.69715-8.01393-9.72607z" id="path482"/><path stroke-width=".999999" stroke="#fff" fill="#c80200" d="M330.76617 503.40098c-3.15104.3167-7.1397-.78945-9.56444 1.78536-1.59344 2.03975-3.46884 5.71424-6.60989 4.81505-1.22578-.3783-1.88062-2.68668-3.23045-2.22728-.9519 3.44048-.24284 7.64199-3.07325 10.39589-1.88034 1.64632-3.47625 4.01196-2.62564 6.61746.38786 3.20755 4.60346 4.03017 4.60356 7.38072-.19113 4.28364-5.07248 5.98546-8.68376 6.55686-4.14684.56071-8.99886 1.9842-10.93378 6.04044.36002 2.61128 2.57322 4.60578 3.37804 7.11366.8907 2.4156 2.10572 4.67135 3.62832 6.7128 1.38696 3.83719 1.4455 9.14227 5.71909 11.05625 2.48224.89847 5.63872.72398 7.07643-1.83713 2.09079-2.29681.86195-5.96851 3.46783-7.96343 3.60924-3.30306 9.03839-2.11607 13.3151-1.04104 2.28361.49114 4.15076 2.10586 6.21405 2.93689 4.0898-.10004 8.28299.22412 12.31193-.25569 1.10876-4.34278 1.01227-8.98831.69003-13.4401-1.16802-5.14213-4.23929-9.68082-8.4205-12.86371-2.2574-1.66365-2.68064-5.41913-.15972-7.06001 3.31004-2.3312 4.7445-6.43483 4.30368-10.36748.0264-4.79892-.008-9.63146-.94887-14.35678-3.48592.00059-6.97184-.001-10.45776.001z" id="path484"/><path stroke-width=".999999" stroke="#fff" fill="#c80200" d="M336.18792 471.64007c-3.00325.18057-4.91919 2.93385-7.11178 4.64017-.89856 2.26841-.94178 5.29869-3.49371 6.52719-4.06152 2.3792-8.98641-.64104-10.75827-4.51202-1.06944-1.59293-3.00657.5787-3.83398 1.44066-1.43612 2.28596-.49906 5.28389-.81314 7.83969.15981 6.13604-.3501 12.37883.6995 18.44013.96428.64815 2.84249.30794 3.30621 1.74054.64298 1.22541 2.16311 1.5297 2.92868.19697 2.24646-2.20635 3.74938-5.80171 7.38451-5.91039 6.16138-.0427 12.3284-.0308 18.48684-.32828.2299-5.8366-.52263-11.78244.5966-17.54555.50237-1.65359 1.35205-3.17065 2.05998-4.73993-3.32172-2.08581-5.39323-5.77207-8.75762-7.73805-.226-.0584-.46187-.068-.69382-.0511z" id="path486"/><path stroke-width=".999999" stroke="#fff" fill="#c80200" d="M286.23878 511.48436c-4.03729 4.1376-6.02024 9.78276-10.15769 13.84523-2.03532 1.77562-1.86714 4.78663-.23568 6.7641 2.30422 3.295 6.12291 7.17814 4.17111 11.53857-1.42559 3.09456-4.72518 4.36315-7.70901 5.40155-2.07673 1.57531-2.43784 4.72541-5.03096 5.84473-2.47481 1.12003-5.17298 2.46297-7.90156 2.30873-.42485 2.93464 3.00435 4.99287 5.59725 5.21719 2.20098.10887 4.74418.76289 6.26973-1.27143 2.33983-2.00022 4.48864-4.19929 7.24487-5.65284 3.47338-2.72946 6.69476-5.8525 9.49563-9.26521 1.81125-3.09569 3.97399-6.30226 7.57707-7.43375 4.23098-1.86694 10.09058-.83001 12.92557-5.19637 1.51846-2.43676-1.73807-4.03779-2.95708-5.67428-1.33175-1.60298-1.55661-3.75832-1.49496-5.76329-3.87195.55255-7.31172-1.60255-9.89084-4.2778-2.59113-2.16891-5.1334-4.46776-7.90345-6.38513z" id="path488"/><path stroke-width=".999999" stroke="#fff" fill="#c80200" d="M288.74447 547.71625c-3.78398 4.39778-8.24072 8.22959-13.12255 11.34539-1.34648 1.63169-3.07287 2.88652-4.72919 4.18626 2.90877 3.71765 4.09314 8.56355 3.67797 13.21573.77186 4.53144 3.28949 8.57089 5.22523 12.68965.70762 1.16553 1.3077 2.66723 2.40747 3.44075 2.36255-3.21139 5.44191-6.57545 9.7248-6.82201 3.19271-.40231 7.01277-2.61139 6.55559-6.33716-.2723-6.58062.40977-13.46774-2.03031-19.7318-1.81917-2.81897-3.08599-5.92733-4.52388-8.95775-.78927-1.1481-1.62816-3.68972-2.54722-3.86945-.21264.28013-.42527.56026-.63791.84039z" id="path490"/><path stroke-width=".999999" stroke="#fff" fill="#c80200" d="M217.73839 551.69733c-1.81401.0827-4.58363-.004-5.35041 1.96087 1.42114 3.01761 3.99569 5.4668 5.19258 8.65851 1.76442 4.05782.6812 9.05084-2.56314 12.06383-2.72061 2.81204-6.10243 5.62729-6.24042 9.8813-.54147 5.3768 1.14365 11.06254 4.5245 15.2489 2.35299-.25259 4.8449-.87503 7.29928-.6389 5.74753.12754 11.23635 2.31988 17.02472 2.03537 4.39442.10412 8.52799 2.58639 12.9925 1.46213 2.60869-.5214 5.2341-1.32553 7.92049-.82135.87022-5.85624.19453-11.93623-1.78094-17.49189-2.32622-1.80875-4.095-4.20393-5.45521-6.81759-2.10243-3.45492-6.11808-5.0452-10.01521-5.1951-2.3933-.23356-5.65414-2.21743-4.4432-5.02276.71963-1.92659 3.88986-3.76006 1.95266-5.94006-2.6025-2.59964-6.0388-4.39777-7.98489-7.62378-2.40316-.49662-5.01191-.34981-7.39083-1.23548-1.86586-.38723-3.77899-.53239-5.68248-.524z" id="path492"/><path stroke-width=".999999" stroke="#fff" fill="#c80200" d="M196.29824 570.65704c-3.27206.84208-5.97252 3.83584-9.61937 3.21024-2.99074.026-5.93341 1.11771-8.60172 2.27024-4.09419 4.20089-8.35846 8.39425-13.01393 11.8902.5438 1.67958 1.80384 3.26257 1.22917 5.1547.0457 3.67401 4.01216 5.54334 4.52213 9.09285 1.54408 4.52742 4.21756 8.54428 6.51076 12.70904 2.81988-.0671 6.36483.88703 8.38578-1.70582 2.86761-1.45526 4.46342 3.04827 7.36052 2.24496 2.54581-.0962 4.77583-1.79682 5.54044-4.2052 2.8602-3.81075 7.92401-4.82496 11.21064-8.19581 1.84948-1.23479 3.21654-2.55575 1.11109-4.35237-3.7642-6.07598-5.35282-14.54902-1.24338-20.8491 1.67837-1.78077 2.98211-2.98886-.39521-2.44215-3.323.18851-6.9485-.003-9.44008-2.53326-1.09346-.83418-2.01483-2.34096-3.55684-2.28852z" id="path494"/><path stroke-width=".999999" stroke="#fff" fill="#c80200" d="M208.1468 555.75733c-3.17422 1.68954-6.88891 1.97738-9.89779 4.05179-6.43984 3.8227-14.159 2.47874-21.26906 2.74244-2.70297.16999-4.88761 2.35896-7.47787 3.15585-.86427.41088-2.2684.24764-2.06511 1.65226.0837 3.83021-2.22074 7.0567-5.10861 9.34033-2.38919 1.81959-4.60786 5.45585-2.49434 8.26078 1.41633 1.39932 3.92251 2.74238 5.58526.9192 4.65462-3.16323 7.99724-7.86772 12.58783-11.07267 3.24125-1.92297 7.00226-2.4183 10.69955-2.34344 3.269-.58866 6.20872-4.3799 9.68756-2.63386 2.30647 1.74251 4.29601 4.41374 7.53224 4.25571 2.41667.0425 5.05288.36043 7.33641-.11094 3.29342-2.51579 4.99576-7.28214 2.95531-11.1044-1.28946-3.14313-3.31957-5.92076-5.59978-8.41609-.82387.43435-1.64774.8687-2.4716 1.30304z" id="path496"/><path stroke-width=".999999" stroke="#fff" fill="#c80200" d="M155.12124 560.29334c-2.32256-.27356-4.27726 1.05599-5.61934 2.82199-4.27971 3.57374-10.19317 5.7505-12.30626 11.37759-3.42908 5.4822-9.07815 9.05008-13.46046 13.70453-4.41353 4.4617-8.25682 9.4486-12.74297 13.84865-3.42843 3.3445-5.82897 7.74609-9.7267 10.57393-1.71072.63415-3.340906 1.14053-2.64774 3.35292-.539696 5.42907 4.61012 9.06417 9.12758 10.70587 2.52106 1.11708 4.35128-1.46306 4.58967-3.69068.88457-6.87729 4.42002-13.88307 10.7235-17.25608 1.9708-1.33692 3.91497-3.0797 6.49187-2.62427 3.34241.18703 7.21734-.26716 9.18629-3.36157 3.02214-3.57085 4.34823-8.58369 8.23553-11.37381 4.04985-1.64643 8.60396-.62561 12.86118-.93109.98132-.0868-1.80114-1.66821-1.84526-2.90821-1.84805-4.03712 1.82057-7.79164 4.76068-10.13047 2.39561-1.93198 3.31567-5.00878 3.4855-7.97227-2.7004-.29968-6.2803.85541-8.25573-1.5543-1.09065-1.56133 2.28827-3.00349.31945-4.1951-.93515-.55714-2.13953-.33703-3.17679-.38763z" id="path498"/><path stroke-width=".999999" stroke="#fff" fill="#c80200" d="M162.92432 588.58264c-4.90826.52928-9.9844-.34698-14.81826.69635-3.67044 2.55386-5.03347 7.19363-7.69082 10.64466-1.96326 3.38999-5.94324 4.9293-9.72909 4.5186-2.1967-.24609-4.29658.36138-5.92574 1.87415-4.43723 2.28623-7.82052 6.22699-9.54709 10.8983-.62254 1.69845-1.7387 3.93736.19558 5.26649 2.5818 2.82389 3.95317 6.83704 7.56949 8.59096 1.88109-5.09077 9.90111-5.1357 12.33403-.47791 1.27881 2.46096 4.32859 4.07052 6.91418 2.49497 2.68291-1.56658 4.36278-4.58777 7.596-5.31001 4.07694-1.47174 9.09324-1.32157 11.96661-5.1023 2.32681-2.49018 6.3343-5.16598 9.6367-2.79238 1.45217 1.05619 3.86046.4474 3.79583-1.61926-.0455-1.27051 1.46873-2.3409.29482-3.56568-2.61543-4.41281-5.07779-8.92728-6.71089-13.805-1.498-2.5667-4.24716-4.78432-3.88387-8.096.16616-1.53797-.57585-3.54923-1.99748-4.21594z" id="path500"/><path stroke-width=".999999" stroke="#fff" fill="#c80200" d="M96.284423 613.63203c-4.64957 1.14929-6.731674 5.99072-9.026566 9.71028-1.703893 2.958-5.20841 3.38854-8.195753 4.09724-2.154468 1.23113-4.555049 1.70874-7.033499 1.55115-2.168993-.2057-4.635069.87428-4.664799 3.37123-.421597 3.48676-.807164 7.04103-.898995 10.53036.540524 1.62553 2.793266.82351 3.666056 2.2456 1.150064 1.5974 2.946019.96902 4.469091.6029 2.35619.9755 2.403401 4.29945 4.316312 5.85357 2.561739 1.93222 5.327652-.90846 7.274662-2.42552 2.833969-1.56582 4.926143-4.66197 8.476058-4.62123 6.37712-.91199 13.11139 1.0814 17.58091 5.81758 1.82052 2.0248 4.24397 3.15211 6.42049 4.68437 1.04197.0851.47826-1.90958.80078-2.57105.44997-3.80352.0357-8.17181 2.75606-11.23395.95577-2.46351 2.16592-5.58142.90531-8.10358-1.94604-1.74974-4.41881-2.97436-5.61476-5.46182-1.12281-1.40009-2.0005-3.31699-3.50903-4.25604-1.16709 2.01004-2.02637 5.27529-5.01897 4.88891-4.12797-.79239-8.06116-3.30394-10.50006-6.73046-1.778249-2.29793-.715474-5.35269-1.431196-7.86937-.227532-.13931-.521023-.076-.772101-.0802z" id="path502"/><path stroke-width=".999999" stroke="#fff" fill="#c80200" d="M198.61518 620.42184c-4.45647.71977-7.28352 4.7984-11.05625 6.93059-2.73953 1.39742-4.37929 4.3345-3.92427 7.40787-.22359 2.00958 1.69404 3.38891 2.38512 4.97793 3.66554-2.01887 6.90167-5.19238 11.28005-5.57692 4.24421-1.31068 8.68583-1.85946 12.91137-3.19017 2.46544-1.22418 4.92004-2.99056 6.54549-5.18122-.69501-2.97871-4.4964-2.23735-6.50066-3.79737-1.43539-1.13324-3.45642-1.19078-4.6648.32324-1.45145.98515-2.99089-.94189-4.42617-1.21276-.82041-.29676-1.66108-.68822-2.54988-.68119z" id="path504"/><path stroke-width=".999999" stroke="#fff" fill="#c80200" d="M240.29218 606.15787c-2.85012.93227-4.40943 3.9545-6.54549 5.90344-2.27318 2.43526-4.81351 5.65002-3.47035 9.19197.58259 2.15387 3.0054 4.17207 5.28728 3.7999 3.06621-.3273 3.44308-3.84162 3.41921-6.29297.55251-2.99551 3.63758-4.82859 3.75356-8.02814.69833-1.62645.27338-3.46514-1.40001-4.27685-.31021-.19495-.67404-.32142-1.0442-.29735z" id="path506"/><path stroke-width=".999999" stroke="#fff" fill="#c80200" d="M155.19258 637.54315c-4.95759 1.29153-7.88241 6.56506-8.13767 11.44451-.71908 2.66362-3.28709 4.4384-3.53662 7.33164-.24173 2.39002-1.84268 4.18226-3.8542 5.32689-4.37776 3.22776-7.52195 8.10772-12.50828 10.47038-2.47456 1.11577-5.5585.87015-7.79992 2.31757 2.31117.6588 5.02651-.00032 7.48142.0941 3.05967-.30074 6.74236-.0341 8.39557 3.00066 1.14246 1.89976 2.20982 3.89595 3.42299 5.71216.21491 2.63983-2.73193 4.24681-2.70834 6.93185-.51023 4.27038-2.86488 7.86382-4.77781 11.5935-.32706.38597-1.0071 2.32253.0745 1.43435 2.00483-1.79324 2.86051-5.23376 5.71594-5.86051 2.11628.0136 3.32833 2.05915 4.66164 3.39396 1.33101-1.84935 3.74483-3.19349 4.31821-5.47036-.69932-2.45181-2.82361-4.43868-2.48676-7.19385-.0374-3.19527 3.63568-4.42405 5.40155-6.56822 1.50433-1.82157 4.37337-3.10173 3.99088-5.79744.16926-2.54651.0387-5.51349 2.38274-7.16796 4.04169-3.72122 6.96696-8.46752 9.09805-13.48867 2.1338-3.068 6.01124-4.13251 8.96028-6.22288 3.33481-1.59631 6.88358-2.72847 10.34349-3.98866 2.48204.41072 1.56782-2.40317 1.21852-3.86742-.46719-.9668-.83067-2.66489-1.96536-2.92366-1.9702 2.04376-4.39299 3.92295-7.40851 3.84283-3.02077.0681-6.64705.14983-8.51141 2.92678-2.28388 1.98442-4.60586-1.00442-5.947-2.6509-1.6185-1.75323-3.14481-4.5637-5.8239-4.6206z" id="path508"/><path stroke-width=".999999" stroke="#fff" fill="#c80200" d="M185.29124 646.07602c-3.35553.3181-6.30804 2.20254-9.5291 3.09219-3.02164 1.47959-5.88836 3.29523-8.76646 5.02276-2.81473 2.8532-3.62413 7.07925-6.1818 10.16516-1.64931 3.06814-5.28619 4.66904-6.34226 8.05716-.56988 2.57288.33979 5.82059-2.17299 7.60926-2.23707 2.57073-5.19692 4.5096-7.32264 7.12062-1.1078 3.34191 2.54014 5.61972 2.40279 8.82013-1.22259 2.03985-2.81288 4.14039-4.88008 5.33525-1.34399-.10057.55207 1.52464.6149 2.00444 1.43799 1.52053 2.13627 4.39158 4.4571 4.73361 3.16922-.58999 5.18239-4.17633 8.69702-3.84725 1.54563.10841 4.0245.62974 4.40027-1.49117-.40394-2.37764-3.43498-4.4512-1.71087-6.98299 2.3652-2.58364 4.46425-5.57873 7.31191-7.6282 11.23846-6.32499 22.63728-12.35921 33.9661-18.51967 2.42922 1.89085 4.46311 4.64781 7.4426 5.64839 1.78375-.58811 1.95644-3.11896 2.70178-4.60893.92851-3.11534 2.75216-5.96065 3.80962-8.96123-3.02818-3.4242-6.78772-6.25912-10.28365-9.23443-2.64219-2.28182-5.89744-4.00722-9.49251-3.62086-3.36203.0436-5.66543-3.2065-9.12173-2.71424z" id="path510"/><path stroke-width=".999999" stroke="#fff" fill="#c80200" d="M97.478874 663.89115c-3.229843.0552-4.935565 3.79625-8.277192 3.60355-1.987362.16074-4.057427.0918-5.90218-.74621-2.463447 4.15116-5.821675 7.82725-10.256048 9.88687-2.44399 1.42358-4.50685 3.8679-4.134816 6.87395-.05357 2.94921-.000716 5.93465-.707706 8.82076 1.562269 1.03673 2.811837 3.42552 4.886391 3.27591 1.623006-1.62714 2.300385-4.17158 4.386389-5.46153 2.022854-1.94763 6.492562-1.87904 6.921756 1.45961.374798 3.33721.412367 6.89977 2.605444 9.67303 2.492347 3.47382 5.873282 7.68746 10.647155 7.13199 2.453073-.52007 4.750863 1.34518 7.125043.56061 1.86544-.97263 3.05736-3.14013 5.40533-3.18563 2.06899-.63869 4.73933.31078 6.44196-1.19761 2.33427-2.97461 1.0482-7.01681-1.1615-9.64369-2.53039-3.63867-4.17315-7.98395-7.3638-11.11084-2.32608-1.79856-6.65782.11941-7.97985-3.0802-1.000641-4.38859 4.99905-6.91991 3.89901-11.40094-.54058-3.0426-3.41315-5.54207-6.535386-5.45963z" id="path512"/><path stroke-width=".999999" stroke="#fff" fill="#c80200" d="M26.761304 676.01306c-1.890012-.1604-4.470389.36768-4.529697 2.72792-.262271 3.77241-.57991 7.70638.226643 11.41484 2.410759 3.1697 5.19426 6.3958 9.159204 7.55583 2.00241.67985 3.70926 2.69287 5.852875 2.69044 1.011945-2.59405.0902-6.39044 2.926153-8.10674 1.678869-1.24798 4.012869 1.12729 5.233946-.78378 3.224866-3.11251 6.536025-6.33818 8.829265-10.20492.175406-1.50736-2.291514-.98926-3.234867-1.23044-5.999704-.43754-12.105841.21813-18.043031-.80303-1.060477-.54565-2.778691-1.47424-2.765798-2.77653.772733-.89419-3.079155-.15095-1.836501-.48612-.606082-.005-1.212119-.003-1.818192.003z" id="path514"/><path stroke-width=".999999" stroke="#fff" fill="#c80200" d="M14.358457 683.66399c-3.384193-.20296-6.8275986 3.75405-4.5461117 6.85799 1.8176377 2.57479 4.2156937 4.69289 6.2841267 7.05433 1.917841 1.82457 4.566076 2.10997 6.97668 2.76201 2.708863 2.07239 6.032228 4.76245 6.0941 8.47038-.08464 2.79296-3.921132 2.43343-5.546748 1.25569-2.555766-1.69977-1.867418-5.42045-4.279065-7.30118-1.094449-1.075-3.654096-2.99061-4.514545-.67803-.783037 3.5503.234382 7.67864 3.38512 9.80813 2.609945 2.09991 3.925364 5.8112 2.297993 8.91925-.592853 1.64743 1.616647 1.77959 2.510746.96023 4.566706-2.36475 7.770842-6.65408 12.111179-9.30182 1.52943-.70174 3.827767-.15927 3.56694 1.92551.5909 2.26525-1.505931 5.24956.662251 6.94007 3.006339.62054 4.936541-2.58038 6.89524-4.33273 1.852542-1.75394 3.95059-4.39323 2.379433-7.01961-2.118308-2.57511-5.76233-1.4551-8.466588-.69634-2.695516.24901-2.453027-3.22707-2.469517-5.06378.746014-2.24786-1.173833-2.46625-2.77925-3.10862-2.312494-1.42319-4.753308-2.56628-7.250672-3.61428-2.613398-1.89459-5.093649-4.29984-6.606729-7.16608-.618446-1.61616.0032-3.7935-.80368-5.1179-1.865143-.83682-3.8071-1.675-5.900903-1.55322z" id="path516"/><path stroke-width=".999999" stroke="#fff" fill="#c80200" d="M112.5705 706.82637c-2.66341-.12391-4.78429 1.44541-6.6667 3.10797-1.47614 1.05256-3.31095.96713-4.88008.19065-3.583412-.32634-7.626852.0626-10.490592-2.61554-1.400097-1.27258-1.946812 1.8907-2.962781 2.46165-2.683048 3.95727-6.412339 7.07236-9.113044 10.9936-1.870626 3.36346 2.166063 5.98856 2.773374 9.10233.855858 4.17351 1.04479 8.87823-.844702 12.80562-2.219043 3.81691-7.258962 3.45021-10.658003 5.60163-2.597911.53505.904586 2.60894 1.092262 4.06129 1.92431 4.02564 4.099688 8.21181 8.073309 10.58278 3.752985 2.72851 9.041175 4.98292 10.012051 10.02152.488913 2.55876-.493307 5.64961 1.80268 7.56819 1.054512 1.99381 3.793721 2.68216 5.397487.90471 3.60638-3.93762 2.629245-9.70865 3.033437-14.60521.372591-7.42472-.22556-14.94801 1.026562-22.29904 1.14072-4.21707 4.14542-7.86314 4.0405-12.41111.35399-5.26494 1.2456-10.98267 5.3617-14.72288 2.33725-2.15481 4.0104-4.9701 4.20015-8.19133.076-1.40517 2.12448-3.48571-.5297-2.61887-.22263.0207-.44527.0414-.66791.062z" id="path518"/><path stroke-width=".999999" stroke="#fff" fill="#c80200" d="M54.799341 745.21673c-2.665642-.17879-5.44874.63235-8.039187.12879-1.101797.13988-1.732095 1.94376-2.53054 2.71048-1.288972 2.00209-3.00523 3.89317-3.954345 6.01179-.241913 5.13678.352571 11.41848 5.212151 14.36877 3.432814 2.5049 3.583679 7.77771 1.795465 11.29931-1.841285 2.72278-5.765735 5.41369-4.222878 9.19512.760686 3.08416 3.938671 4.43971 6.856398 4.32011 3.961448.21363 7.866876 2.32318 11.829314 1.40783 2.923662-1.91345 3.22202-6.76288.57576-9.10106-2.13817-2.86664-6.082197-5.7583-5.065053-9.80182 1.61933-3.65793 5.418333-5.82922 8.816969-7.64146 1.072967-.84554 3.998187-.75796 3.167315 1.20455-.882774 1.80485-4.3221-.0746-4.417322 2.56252.02296 2.45676-1.078537 5.82142 1.468554 7.40884 2.952838 1.93238 6.069816 5.12181 4.998022 8.98266-1.085137 3.85216-5.819308 5.8043-6.16607 9.91104 1.238596 2.65795 4.925284 1.3154 6.893348.28851 3.081197-2.08117 6.063837-4.33195 9.234269-6.29612 3.088593-2.57849 1.889123-7.10374 3.018955-10.56382.236853-1.77192 1.421943-3.16945 3.087139-3.68373 1.174668-3.02032.04861-6.96919-2.643959-8.88329-4.525698-3.85317-10.667861-6.27288-13.198933-12.04612-2.080558-4.80443-5.376571-9.79106-10.703343-11.27848-1.956427-.51421-4.004644-.48945-6.012029-.50442z" id="path520"/></svg>